<?xml version="1.0" encoding="UTF-8" standalone="no"?>
<svg
   xmlns:dc="http://purl.org/dc/elements/1.1/"
   xmlns:cc="http://creativecommons.org/ns#"
   xmlns:rdf="http://www.w3.org/1999/02/22-rdf-syntax-ns#"
   xmlns:svg="http://www.w3.org/2000/svg"
   xmlns="http://www.w3.org/2000/svg"
   xmlns:sodipodi="http://sodipodi.sourceforge.net/DTD/sodipodi-0.dtd"
   xmlns:inkscape="http://www.inkscape.org/namespaces/inkscape"
   width="400"
   height="400"
   viewBox="0 0 400 400"
   id="svg4347"
   version="1.1"
   inkscape:version="0.91 r13725"
   sodipodi:docname="logo_400x400_1d3e5a.svg"
   inkscape:export-filename="/home/devel/Рабочий стол/logo_400x400_1d3e5a.png"
   inkscape:export-xdpi="89"
   inkscape:export-ydpi="89">
  <sodipodi:namedview
     pagecolor="#ffffff"
     bordercolor="#666666"
     borderopacity="1"
     objecttolerance="10"
     gridtolerance="10"
     guidetolerance="10"
     inkscape:pageopacity="0"
     inkscape:pageshadow="2"
     inkscape:window-width="1410"
     inkscape:window-height="946"
     id="namedview10"
     showgrid="false"
     inkscape:zoom="0.59"
     inkscape:cx="-106.77966"
     inkscape:cy="191.52543"
     inkscape:window-x="460"
     inkscape:window-y="15"
     inkscape:window-maximized="0"
     inkscape:current-layer="svg4347" />
  <defs
     id="defs4349" />
  <metadata
     id="metadata4352">
    <rdf:RDF>
      <cc:Work
         rdf:about="">
        <dc:format>image/svg+xml</dc:format>
        <dc:type
           rdf:resource="http://purl.org/dc/dcmitype/StillImage" />
        <dc:title></dc:title>
      </cc:Work>
    </rdf:RDF>
  </metadata>
  <path
     inkscape:connector-curvature="0"
     id="path24"
     style="fill:#1d3e5a;fill-opacity:1;fill-rule:nonzero;stroke:none;stroke-width:0.17752962;stroke-linecap:round;stroke-linejoin:round;stroke-miterlimit:4;stroke-dasharray:none;stroke-opacity:1"
     d="M 200.00002,-2.6498555e-6 C 168.36415,62.806636 33.333357,114.96585 33.333357,233.49665 33.333357,321.38909 107.95835,400 200.00002,400 292.04166,400 366.66664,321.38909 366.66664,233.49665 366.66664,114.96585 231.63501,62.806636 200.00002,-2.6498556e-6" />
  <g
     id="g3349"
     transform="matrix(1.4790999,0,0,1.4790999,-113.39067,-262.37887)"
     style="fill:#ffffff">
    <path
       inkscape:connector-curvature="0"
       d="m 287.15033,294.3595 -21.889,0 0.036,40.955 c 0,11.969 -5.131,21.652 -17.1,21.652 -11.974,0 -17.152,-9.683 -17.152,-21.652 l 0,-40.915 -21.832,0 -0.006,40.915 c 0,23.651 15.203,42.82 38.858,42.82 23.648,0 39.078,-19.169 39.078,-42.82 l 0.007,-40.955 z"
       id="path5"
       style="fill:#ffffff" />
    <path
       inkscape:connector-curvature="0"
       d="m 191.40833,293.4685 c -18.775,-4.333 -30.619,14.319 -31.111,15.319 -0.242,0.491 -0.251,0.777 -1.083,0.755 -0.687,-0.014 -0.766,-0.755 -0.766,-0.755 l -2.33,-14.268 -19.51,0 0,81.43 21.871,0 0,-44.076 c 0,-3.602 9.7,-20.872 28.492,-16.426 9.504,2.248 13.535,6.281 13.535,6.281 0,0 0,-15.718 0,-24.806 -3.517,-1.834 -5.93,-2.723 -9.098,-3.454 z"
       id="path15"
       style="fill:#ffffff" />
  </g>
</svg>
