<?xml version="1.0" encoding="UTF-8" standalone="no"?>
<svg
   xmlns:dc="http://purl.org/dc/elements/1.1/"
   xmlns:cc="http://creativecommons.org/ns#"
   xmlns:rdf="http://www.w3.org/1999/02/22-rdf-syntax-ns#"
   xmlns:svg="http://www.w3.org/2000/svg"
   xmlns="http://www.w3.org/2000/svg"
   width="400"
   height="400"
   viewBox="0 0 400 400"
   id="svg4347"
   version="1.1">
  <defs
     id="defs4349" />
  <metadata
     id="metadata4352">
    <rdf:RDF>
      <cc:Work
         rdf:about="">
        <dc:format>image/svg+xml</dc:format>
        <dc:type
           rdf:resource="http://purl.org/dc/dcmitype/StillImage" />
        <dc:title></dc:title>
      </cc:Work>
    </rdf:RDF>
  </metadata>
  <g
     transform="matrix(3.129368,0,0,3.129368,-0.27954418,-0.28130736)"
     id="g4148">
    <path
       d="M 64.000003,0.08989186 C 53.890657,20.159963 10.741115,36.827615 10.741115,74.704527 c 0,28.086323 23.846667,53.206703 53.258888,53.206703 29.412215,0 53.258877,-25.12038 53.258877,-53.206703 0,-37.876912 -43.149808,-54.544564 -53.258877,-74.61463514"
       style="fill:#1d3e5f;fill-opacity:0.94117647;fill-rule:nonzero;stroke:none;stroke-width:0.17752962;stroke-linecap:round;stroke-linejoin:round;stroke-miterlimit:4;stroke-dasharray:none;stroke-opacity:1"
       id="path24" />
    <g
       style="fill:#ffffff"
       transform="matrix(0.4726513,0,0,0.4726513,-36.145039,-83.754153)"
       id="g3349">
      <path
         style="fill:#ffffff"
         id="path5"
         d="m 287.15033,294.3595 -21.889,0 0.036,40.955 c 0,11.969 -5.131,21.652 -17.1,21.652 -11.974,0 -17.152,-9.683 -17.152,-21.652 l 0,-40.915 -21.832,0 -0.006,40.915 c 0,23.651 15.203,42.82 38.858,42.82 23.648,0 39.078,-19.169 39.078,-42.82 l 0.007,-40.955 z" />
      <path
         style="fill:#ffffff"
         id="path15"
         d="m 191.40833,293.4685 c -18.775,-4.333 -30.619,14.319 -31.111,15.319 -0.242,0.491 -0.251,0.777 -1.083,0.755 -0.687,-0.014 -0.766,-0.755 -0.766,-0.755 l -2.33,-14.268 -19.51,0 0,81.43 21.871,0 0,-44.076 c 0,-3.602 9.7,-20.872 28.492,-16.426 9.504,2.248 13.535,6.281 13.535,6.281 0,0 0,-15.718 0,-24.806 -3.517,-1.834 -5.93,-2.723 -9.098,-3.454 z" />
    </g>
  </g>
</svg>
