<?xml version="1.0" encoding="UTF-8" standalone="no"?>
<svg
   xmlns:dc="http://purl.org/dc/elements/1.1/"
   xmlns:cc="http://creativecommons.org/ns#"
   xmlns:rdf="http://www.w3.org/1999/02/22-rdf-syntax-ns#"
   xmlns:svg="http://www.w3.org/2000/svg"
   xmlns="http://www.w3.org/2000/svg"
   viewBox="0 0 300.00001 359.99998"
   height="360"
   width="300"
   xml:space="preserve"
   version="1.1"
   id="svg5102"><metadata
     id="metadata5108"><rdf:RDF><cc:Work
         rdf:about=""><dc:format>image/svg+xml</dc:format><dc:type
           rdf:resource="http://purl.org/dc/dcmitype/StillImage" /><dc:title></dc:title></cc:Work></rdf:RDF></metadata><defs
     id="defs5106"><clipPath
       id="clipPath5116"
       clipPathUnits="userSpaceOnUse"><path
         id="path5118"
         d="m 0,2040.945 1700.787,0 L 1700.787,0 0,0 0,2040.945 Z" /></clipPath><clipPath
       id="clipPath5128"
       clipPathUnits="userSpaceOnUse"><path
         id="path5130"
         d="m 282.324,1168.14 1418.466,0 0,-1168.14 -1418.466,0 0,1168.14 z" /></clipPath><clipPath
       id="clipPath5144"
       clipPathUnits="userSpaceOnUse"><path
         id="path5146"
         d="m 282.331,1168.18 1136.119,0 0,-643.903 -1136.119,0 0,643.903 z" /></clipPath></defs><g
     transform="matrix(1.25,0,0,-1.25,0,359.9998)"
     id="g5110"><g
       transform="matrix(0.14111114,0,0,0.14111114,0,8.5888885e-5)"
       id="g5112"><g
         clip-path="url(#clipPath5116)"
         id="g5114"><g
           transform="translate(850.3867,2040.9451)"
           id="g5120"><path
             id="path5122"
             style="fill:#5076c4;fill-opacity:1;fill-rule:nonzero;stroke:none"
             d="m 0,0 c -0.635,-1.257 -1.271,-2.505 -1.914,-3.756 -0.652,-1.251 -1.307,-2.499 -1.958,-3.75 -0.671,-1.248 -1.343,-2.493 -2.011,-3.741 -0.688,-1.246 -1.377,-2.494 -2.064,-3.74 -0.699,-1.242 -1.404,-2.488 -2.1,-3.731 -0.715,-1.245 -1.439,-2.488 -2.154,-3.732 -0.733,-1.243 -1.465,-2.483 -2.192,-3.726 -0.75,-1.239 -1.496,-2.482 -2.244,-3.722 -0.763,-1.238 -1.523,-2.483 -2.283,-3.72 -0.779,-1.24 -1.559,-2.477 -2.336,-3.717 -0.79,-1.231 -1.586,-2.471 -2.374,-3.708 -0.807,-1.237 -1.614,-2.472 -2.421,-3.708 -0.818,-1.234 -1.635,-2.467 -2.458,-3.707 -0.835,-1.23 -1.673,-2.465 -2.507,-3.697 -0.846,-1.231 -1.692,-2.465 -2.544,-3.698 -0.862,-1.234 -1.727,-2.464 -2.585,-3.697 -1.767,-2.46 -3.534,-4.92 -5.3,-7.381 -1.823,-2.46 -3.639,-4.918 -5.465,-7.373 -1.869,-2.454 -3.744,-4.908 -5.616,-7.361 -1.928,-2.454 -3.853,-4.909 -5.779,-7.356 -1.971,-2.455 -3.949,-4.904 -5.924,-7.353 -2.022,-2.446 -4.049,-4.896 -6.074,-7.345 -2.072,-2.446 -4.147,-4.895 -6.218,-7.339 -2.12,-2.447 -4.239,-4.896 -6.358,-7.339 -2.164,-2.447 -4.333,-4.89 -6.5,-7.334 -2.207,-2.446 -4.418,-4.89 -6.629,-7.339 -2.255,-2.441 -4.51,-4.89 -6.76,-7.333 -2.298,-2.442 -4.595,-4.891 -6.889,-7.34 -2.341,-2.442 -4.677,-4.891 -7.015,-7.334 -2.375,-2.446 -4.757,-4.896 -7.131,-7.345 -2.414,-2.446 -4.832,-4.895 -7.248,-7.35 -2.455,-2.447 -4.906,-4.901 -7.361,-7.35 -2.494,-2.455 -4.983,-4.907 -7.476,-7.362 -2.524,-2.454 -5.05,-4.915 -7.578,-7.368 -2.557,-2.46 -5.12,-4.92 -7.68,-7.38 -2.59,-2.466 -5.187,-4.923 -7.778,-7.39 -2.623,-2.465 -5.248,-4.932 -7.877,-7.402 -2.654,-2.472 -5.312,-4.941 -7.967,-7.413 -2.684,-2.47 -5.373,-4.947 -8.054,-7.424 -2.715,-2.483 -5.431,-4.96 -8.147,-7.443 -2.738,-2.488 -5.48,-4.97 -8.224,-7.458 -2.768,-2.493 -5.534,-4.981 -8.299,-7.475 -2.795,-2.499 -5.583,-4.992 -8.379,-7.492 -2.813,-2.507 -5.631,-5.012 -8.446,-7.516 -2.841,-2.511 -5.675,-5.022 -8.515,-7.534 -2.865,-2.516 -5.723,-5.033 -8.586,-7.553 -2.879,-2.524 -5.76,-5.052 -8.64,-7.578 -2.895,-2.535 -5.799,-5.068 -8.696,-7.603 -2.92,-2.543 -5.836,-5.084 -8.754,-7.628 -2.937,-2.551 -5.869,-5.1 -8.806,-7.653 -2.948,-2.56 -5.897,-5.117 -8.851,-7.68 -2.965,-2.566 -5.931,-5.14 -8.896,-7.709 -2.976,-2.579 -5.952,-5.156 -8.927,-7.74 -2.996,-2.586 -5.984,-5.176 -8.971,-7.767 -3.004,-2.602 -6.006,-5.204 -9.01,-7.805 -3.011,-2.608 -6.021,-5.221 -9.031,-7.833 -3.018,-2.618 -6.038,-5.243 -9.062,-7.869 -3.022,-2.636 -6.049,-5.265 -9.078,-7.9 -6.071,-5.306 -12.143,-10.613 -18.217,-15.919 -6.089,-5.356 -12.18,-10.712 -18.268,-16.071 -3.052,-2.695 -6.098,-5.394 -9.146,-8.1 -3.045,-2.709 -6.096,-5.424 -9.147,-8.134 -3.043,-2.727 -6.094,-5.453 -9.14,-8.18 -3.046,-2.743 -6.094,-5.486 -9.139,-8.225 -3.045,-2.761 -6.083,-5.516 -9.129,-8.271 -3.039,-2.774 -6.08,-5.544 -9.117,-8.318 -3.035,-2.788 -6.069,-5.579 -9.1,-8.366 -3.029,-2.806 -6.056,-5.608 -9.084,-8.412 -3.021,-2.824 -6.039,-5.642 -9.06,-8.466 -3.012,-2.84 -6.022,-5.674 -9.034,-8.515 -3.004,-2.851 -6.005,-5.708 -9.004,-8.566 -2.992,-2.873 -5.98,-5.744 -8.975,-8.617 -2.976,-2.89 -5.952,-5.783 -8.935,-8.674 -2.959,-2.91 -5.924,-5.825 -8.888,-8.732 -2.956,-2.926 -5.904,-5.858 -8.858,-8.781 -2.931,-2.949 -5.869,-5.897 -8.798,-8.846 -2.921,-2.971 -5.842,-5.936 -8.755,-8.9 -2.903,-2.988 -5.798,-5.978 -8.703,-8.965 -2.879,-3.004 -5.761,-6.016 -8.64,-9.021 -2.863,-3.034 -5.719,-6.06 -8.584,-9.089 -2.841,-3.051 -5.682,-6.102 -8.514,-9.145 -2.817,-3.073 -5.636,-6.147 -8.453,-9.214 -2.797,-3.096 -5.584,-6.186 -8.38,-9.284 -2.766,-3.113 -5.531,-6.224 -8.3,-9.345 -2.742,-3.135 -5.486,-6.277 -8.223,-9.411 -2.716,-3.159 -5.431,-6.321 -8.147,-9.482 -2.687,-3.186 -5.376,-6.367 -8.055,-9.554 -2.66,-3.204 -5.317,-6.413 -7.971,-9.622 -2.63,-3.235 -5.254,-6.466 -7.877,-9.698 -2.597,-3.256 -5.188,-6.509 -7.783,-9.766 -2.564,-3.281 -5.119,-6.565 -7.682,-9.844 -2.526,-3.307 -5.057,-6.612 -7.583,-9.919 -2.487,-3.334 -4.982,-6.663 -7.47,-9.997 -2.455,-3.358 -4.906,-6.715 -7.361,-10.07 -2.422,-3.387 -4.834,-6.772 -7.256,-10.158 -2.38,-3.409 -4.754,-6.824 -7.135,-10.233 -2.335,-3.436 -4.674,-6.879 -7.013,-10.314 -2.295,-3.465 -4.592,-6.93 -6.891,-10.397 -2.25,-3.492 -4.504,-6.987 -6.76,-10.479 -2.211,-3.523 -4.427,-7.046 -6.635,-10.566 -2.166,-3.549 -4.335,-7.1 -6.498,-10.65 -2.119,-3.582 -4.244,-7.16 -6.363,-10.737 -1.046,-1.8 -2.086,-3.604 -3.132,-5.403 -1.026,-1.806 -2.061,-3.618 -3.09,-5.426 -1.014,-1.817 -2.038,-3.628 -3.056,-5.448 -1.005,-1.822 -2.017,-3.644 -3.021,-5.47 -0.996,-1.827 -1.988,-3.658 -2.982,-5.487 -0.985,-1.841 -1.967,-3.674 -2.943,-5.516 -0.97,-1.845 -1.944,-3.692 -2.909,-5.539 -0.961,-1.851 -1.914,-3.702 -2.869,-5.556 -0.942,-1.861 -1.891,-3.724 -2.834,-5.584 -0.927,-1.869 -1.859,-3.736 -2.791,-5.605 -0.918,-1.875 -1.833,-3.756 -2.754,-5.631 -0.901,-1.886 -1.805,-3.772 -2.71,-5.651 -0.89,-1.89 -1.778,-3.788 -2.669,-5.679 -0.881,-1.898 -1.756,-3.803 -2.629,-5.7 -0.865,-1.91 -1.728,-3.818 -2.59,-5.726 -0.855,-1.914 -1.701,-3.833 -2.552,-5.75 -0.835,-1.924 -1.67,-3.85 -2.505,-5.77 -0.817,-1.937 -1.642,-3.869 -2.46,-5.798 -0.807,-1.946 -1.611,-3.881 -2.419,-5.826 -0.796,-1.947 -1.587,-3.894 -2.374,-5.844 -0.779,-1.958 -1.559,-3.914 -2.336,-5.875 -0.76,-1.963 -1.527,-3.93 -2.288,-5.894 -0.746,-1.972 -1.495,-3.95 -2.244,-5.919 -0.736,-1.983 -1.468,-3.967 -2.199,-5.949 -0.716,-1.986 -1.431,-3.981 -2.148,-5.97 -0.704,-2 -1.408,-4 -2.107,-5.999 -0.688,-2.012 -1.376,-4.017 -2.061,-6.027 -0.672,-2.019 -1.343,-4.029 -2.012,-6.046 -0.654,-2.027 -1.311,-4.049 -1.966,-6.077 -0.635,-2.032 -1.279,-4.07 -1.914,-6.103 -0.623,-2.044 -1.25,-4.082 -1.87,-6.127 -0.607,-2.052 -1.214,-4.101 -1.822,-6.152 -0.591,-2.063 -1.181,-4.119 -1.771,-6.182 -0.574,-2.066 -1.149,-4.136 -1.723,-6.208 -0.559,-2.075 -1.113,-4.152 -1.67,-6.233 -0.541,-2.082 -1.08,-4.174 -1.62,-6.26 -0.521,-2.094 -1.043,-4.191 -1.573,-6.288 -0.504,-2.108 -1.01,-4.208 -1.518,-6.315 -0.487,-2.114 -0.975,-4.228 -1.464,-6.341 -0.471,-2.125 -0.942,-4.249 -1.415,-6.374 -0.455,-2.131 -0.909,-4.261 -1.364,-6.397 -0.436,-2.14 -0.874,-4.283 -1.306,-6.424 -0.42,-2.152 -0.841,-4.298 -1.259,-6.455 -0.4,-2.158 -0.802,-4.321 -1.2,-6.478 -0.381,-2.172 -0.767,-4.342 -1.147,-6.51 -0.363,-2.178 -0.728,-4.358 -1.091,-6.541 -0.346,-2.185 -0.693,-4.371 -1.039,-6.565 -0.33,-2.201 -0.655,-4.397 -0.982,-6.597 -0.308,-2.201 -0.616,-4.412 -0.926,-6.623 -0.292,-2.213 -0.58,-4.43 -0.871,-6.651 -0.267,-2.228 -0.539,-4.455 -0.811,-6.679 -0.252,-2.238 -0.502,-4.472 -0.752,-6.711 -0.232,-2.249 -0.466,-4.492 -0.699,-6.742 -0.207,-2.256 -0.424,-4.51 -0.635,-6.766 -0.193,-2.265 -0.384,-4.535 -0.58,-6.801 -0.174,-2.277 -0.346,-4.554 -0.521,-6.826 -0.155,-2.291 -0.307,-4.574 -0.46,-6.862 -0.136,-2.297 -0.269,-4.591 -0.406,-6.893 -0.113,-2.305 -0.226,-4.612 -0.34,-6.912 -0.089,-2.319 -0.181,-4.636 -0.278,-6.954 -0.075,-2.321 -0.141,-4.651 -0.216,-6.981 -0.05,-2.333 -0.109,-4.668 -0.158,-7.009 -0.028,-2.348 -0.064,-4.694 -0.092,-7.037 -0.011,-2.358 -0.022,-4.716 -0.033,-7.073 0.022,-3.501 0.044,-6.999 0.067,-10.505 0.074,-3.492 0.144,-6.987 0.211,-10.482 0.113,-3.486 0.232,-6.973 0.346,-10.462 0.159,-3.481 0.325,-6.965 0.483,-10.446 0.206,-3.473 0.416,-6.948 0.618,-10.418 0.253,-3.474 0.508,-6.937 0.758,-10.401 0.294,-3.459 0.591,-6.921 0.884,-10.38 0.342,-3.448 0.682,-6.902 1.024,-10.349 0.386,-3.442 0.773,-6.885 1.154,-10.33 0.43,-3.436 0.863,-6.867 1.289,-10.299 0.472,-3.422 0.944,-6.847 1.42,-10.273 0.517,-3.414 1.028,-6.828 1.545,-10.243 0.561,-3.41 1.119,-6.81 1.682,-10.213 0.601,-3.398 1.203,-6.796 1.805,-10.186 0.644,-3.387 1.29,-6.773 1.931,-10.157 0.688,-3.37 1.375,-6.743 2.064,-10.119 0.726,-3.362 1.459,-6.723 2.185,-10.088 0.775,-3.35 1.54,-6.695 2.314,-10.049 0.812,-3.34 1.625,-6.68 2.435,-10.019 0.854,-3.326 1.705,-6.654 2.563,-9.977 0.892,-3.317 1.783,-6.629 2.681,-9.946 0.933,-3.301 1.87,-6.602 2.805,-9.9 0.974,-3.29 1.95,-6.58 2.927,-9.869 1.012,-3.27 2.027,-6.543 3.046,-9.822 1.056,-3.259 2.107,-6.521 3.164,-9.779 1.095,-3.247 2.191,-6.495 3.281,-9.74 1.138,-3.231 2.275,-6.463 3.404,-9.696 1.176,-3.221 2.346,-6.436 3.522,-9.65 1.21,-3.203 2.42,-6.403 3.631,-9.606 1.248,-3.187 2.505,-6.374 3.753,-9.56 1.284,-3.171 2.575,-6.342 3.864,-9.512 1.323,-3.15 2.652,-6.311 3.977,-9.461 1.363,-3.137 2.727,-6.274 4.089,-9.414 1.403,-3.118 2.807,-6.238 4.205,-9.361 1.437,-3.102 2.873,-6.205 4.311,-9.313 1.478,-3.084 2.953,-6.168 4.424,-9.252 1.511,-3.068 3.023,-6.137 4.535,-9.203 1.551,-3.052 3.095,-6.1 4.64,-9.151 1.584,-3.035 3.17,-6.061 4.748,-9.095 1.621,-3.01 3.241,-6.022 4.858,-9.031 1.652,-2.996 3.311,-5.989 4.965,-8.982 1.685,-2.97 3.381,-5.947 5.067,-8.921 1.72,-2.951 3.448,-5.904 5.17,-8.859 1.759,-2.932 3.515,-5.863 5.276,-8.801 1.794,-2.906 3.583,-5.822 5.381,-8.737 1.823,-2.89 3.653,-5.78 5.475,-8.673 1.864,-2.869 3.72,-5.736 5.584,-8.607 1.891,-2.852 3.789,-5.698 5.68,-8.549 1.925,-2.823 3.853,-5.653 5.784,-8.474 1.961,-2.807 3.919,-5.608 5.88,-8.415 1.986,-2.783 3.98,-5.561 5.974,-8.344 2.023,-2.759 4.051,-5.517 6.072,-8.277 2.059,-2.732 4.114,-5.469 6.172,-8.201 2.088,-2.716 4.174,-5.426 6.266,-8.136 2.116,-2.687 4.235,-5.372 6.354,-8.06 2.153,-2.666 4.308,-5.329 6.455,-7.994 2.18,-2.635 4.363,-5.276 6.543,-7.914 2.216,-2.613 4.427,-5.225 6.64,-7.839 2.244,-2.59 4.483,-5.18 6.727,-7.763 2.271,-2.564 4.543,-5.126 6.823,-7.692 2.3,-2.535 4.602,-5.073 6.901,-7.608 2.336,-2.51 4.668,-5.021 6.998,-7.531 2.364,-2.483 4.721,-4.965 7.084,-7.448 2.391,-2.46 4.783,-4.914 7.17,-7.367 2.419,-2.431 4.838,-4.865 7.26,-7.289 2.449,-2.402 4.89,-4.801 7.339,-7.203 2.477,-2.375 4.954,-4.748 7.431,-7.117 2.499,-2.347 5.003,-4.693 7.502,-7.04 2.536,-2.316 5.062,-4.63 7.595,-6.945 2.557,-2.292 5.12,-4.575 7.675,-6.863 2.585,-2.256 5.171,-4.515 7.755,-6.771 2.613,-2.227 5.226,-4.454 7.834,-6.688 2.641,-2.199 5.275,-4.39 7.918,-6.59 2.664,-2.169 5.329,-4.332 7.992,-6.504 2.688,-2.136 5.381,-4.271 8.065,-6.408 2.722,-2.107 5.437,-4.213 8.153,-6.315 2.74,-2.08 5.483,-4.152 8.222,-6.228 2.765,-2.038 5.533,-4.082 8.298,-6.121 2.79,-2.011 5.584,-4.021 8.373,-6.033 2.817,-1.977 5.629,-3.955 8.448,-5.937 2.839,-1.943 5.679,-3.884 8.52,-5.834 2.862,-1.909 5.725,-3.823 8.59,-5.737 2.885,-1.875 5.77,-3.756 8.663,-5.636 2.906,-1.847 5.816,-3.686 8.732,-5.534 2.928,-1.81 5.866,-3.617 8.797,-5.43 2.96,-1.779 5.914,-3.556 8.868,-5.328 2.982,-1.743 5.959,-3.482 8.94,-5.226 3.001,-1.703 5.999,-3.414 9.007,-5.117 3.019,-1.67 6.043,-3.34 9.064,-5.01 3.045,-1.637 6.091,-3.273 9.139,-4.91 3.062,-1.594 6.131,-3.197 9.198,-4.793 3.085,-1.565 6.175,-3.125 9.259,-4.688 3.115,-1.527 6.221,-3.05 9.328,-4.579 3.131,-1.487 6.26,-2.975 9.389,-4.463 3.148,-1.456 6.297,-2.904 9.447,-4.352 3.171,-1.414 6.342,-2.828 9.512,-4.243 3.187,-1.376 6.374,-2.749 9.566,-4.125 3.209,-1.334 6.413,-2.668 9.622,-4.011 3.232,-1.295 6.458,-2.59 9.687,-3.892 3.242,-1.253 6.492,-2.515 9.74,-3.772 3.263,-1.221 6.527,-2.441 9.795,-3.655 3.281,-1.182 6.564,-2.359 9.85,-3.54 3.306,-1.137 6.607,-2.28 9.907,-3.415 3.317,-1.101 6.64,-2.199 9.958,-3.294 3.34,-1.057 6.674,-2.12 10.013,-3.176 3.354,-1.016 6.709,-2.028 10.061,-3.046 3.375,-0.976 6.742,-1.952 10.112,-2.923 3.392,-0.933 6.777,-1.87 10.169,-2.803 3.403,-0.892 6.804,-1.777 10.213,-2.67 3.42,-0.846 6.84,-1.698 10.26,-2.544 3.436,-0.807 6.873,-1.608 10.31,-2.413 3.454,-0.763 6.901,-1.523 10.354,-2.291 3.473,-0.716 6.937,-1.437 10.402,-2.152 3.484,-0.678 6.965,-1.346 10.449,-2.022 3.497,-0.63 6.998,-1.263 10.49,-1.892 3.511,-0.586 7.028,-1.17 10.537,-1.756 3.522,-0.538 7.052,-1.084 10.579,-1.625 3.539,-0.494 7.076,-0.988 10.615,-1.487 3.557,-0.449 7.107,-0.899 10.662,-1.348 3.571,-0.402 7.131,-0.805 10.699,-1.21 3.578,-0.357 7.162,-0.715 10.743,-1.072 3.589,-0.315 7.183,-0.625 10.775,-0.939 3.606,-0.26 7.209,-0.526 10.815,-0.788 3.621,-0.216 7.237,-0.431 10.851,-0.654 3.628,-0.164 7.259,-0.336 10.89,-0.504 3.641,-0.125 7.281,-0.244 10.923,-0.363 3.653,-0.076 7.306,-0.151 10.959,-0.223 3.664,-0.021 7.328,-0.047 10.984,-0.074 3.664,0.027 7.328,0.053 10.992,0.074 3.653,0.072 7.307,0.147 10.959,0.223 3.643,0.119 7.281,0.238 10.923,0.363 3.631,0.168 7.262,0.34 10.89,0.504 3.614,0.223 7.231,0.438 10.851,0.654 3.606,0.262 7.209,0.528 10.815,0.788 3.591,0.314 7.186,0.624 10.775,0.939 3.582,0.357 7.16,0.715 10.743,1.072 3.568,0.405 7.128,0.808 10.698,1.21 3.557,0.449 7.107,0.899 10.663,1.348 3.539,0.499 7.076,0.993 10.615,1.487 3.528,0.541 7.056,1.087 10.579,1.625 3.509,0.586 7.026,1.17 10.538,1.756 3.492,0.629 6.992,1.262 10.49,1.892 3.484,0.676 6.965,1.344 10.448,2.022 3.464,0.715 6.935,1.436 10.402,2.152 3.453,0.768 6.9,1.528 10.354,2.291 3.437,0.805 6.873,1.606 10.31,2.413 3.42,0.846 6.84,1.698 10.26,2.544 3.41,0.893 6.81,1.778 10.213,2.67 3.392,0.933 6.777,1.87 10.169,2.803 3.37,0.971 6.743,1.947 10.113,2.923 3.356,1.018 6.707,2.03 10.065,3.046 3.334,1.056 6.674,2.119 10.008,3.176 3.318,1.095 6.641,2.193 9.958,3.294 3.301,1.135 6.606,2.278 9.907,3.415 3.285,1.181 6.569,2.358 9.85,3.54 3.267,1.214 6.533,2.434 9.801,3.655 3.244,1.257 6.492,2.519 9.735,3.772 3.233,1.302 6.46,2.597 9.686,3.892 3.21,1.343 6.419,2.677 9.625,4.011 3.19,1.376 6.377,2.749 9.569,4.125 3.17,1.415 6.341,2.829 9.512,4.243 3.144,1.448 6.293,2.896 9.447,4.352 3.129,1.488 6.252,2.976 9.383,4.463 3.107,1.529 6.218,3.052 9.328,4.579 3.084,1.563 6.175,3.123 9.264,4.688 3.062,1.596 6.13,3.199 9.199,4.793 3.042,1.637 6.088,3.273 9.133,4.91 3.021,1.67 6.044,3.34 9.073,5.01 2.999,1.703 5.997,3.414 9.004,5.117 2.975,1.744 5.958,3.483 8.934,5.226 2.953,1.772 5.913,3.549 8.867,5.328 2.938,1.813 5.87,3.62 8.804,5.43 2.909,1.848 5.825,3.687 8.732,5.534 2.887,1.88 5.772,3.761 8.662,5.636 2.865,1.914 5.728,3.828 8.591,5.737 2.84,1.95 5.68,3.891 8.52,5.834 2.813,1.982 5.631,3.96 8.446,5.937 2.79,2.012 5.581,4.022 8.368,6.033 2.766,2.039 5.535,4.083 8.299,6.121 2.744,2.076 5.485,4.148 8.228,6.228 2.716,2.102 5.431,4.208 8.146,6.315 2.691,2.137 5.378,4.272 8.072,6.408 2.663,2.172 5.328,4.335 7.991,6.504 2.638,2.2 5.278,4.391 7.913,6.59 2.613,2.234 5.226,4.461 7.84,6.688 2.584,2.256 5.17,4.515 7.755,6.771 2.557,2.288 5.112,4.571 7.674,6.863 2.528,2.315 5.063,4.629 7.589,6.945 2.505,2.347 5.009,4.693 7.509,7.04 2.477,2.369 4.953,4.742 7.426,7.117 2.449,2.402 4.894,4.801 7.344,7.203 2.422,2.424 4.84,4.858 7.254,7.289 2.393,2.453 4.785,4.907 7.175,7.367 2.358,2.483 4.721,4.965 7.084,7.448 2.33,2.51 4.662,5.021 6.992,7.531 2.309,2.535 4.608,5.073 6.907,7.608 2.281,2.566 4.552,5.128 6.824,7.692 2.238,2.583 4.482,5.173 6.727,7.763 2.215,2.614 4.423,5.226 6.64,7.839 2.18,2.638 4.362,5.279 6.543,7.914 2.147,2.665 4.302,5.328 6.454,7.994 2.119,2.688 4.239,5.373 6.355,8.06 2.092,2.71 4.177,5.42 6.265,8.136 2.059,2.732 4.114,5.469 6.172,8.201 2.022,2.76 4.05,5.518 6.072,8.277 1.995,2.783 3.989,5.561 5.975,8.344 1.961,2.807 3.919,5.608 5.88,8.415 1.931,2.821 3.858,5.651 5.783,8.474 1.892,2.851 3.789,5.697 5.681,8.549 1.863,2.871 3.72,5.738 5.584,8.607 1.824,2.893 3.652,5.783 5.474,8.673 1.798,2.915 3.587,5.831 5.381,8.737 1.762,2.938 3.518,5.869 5.276,8.801 1.722,2.955 3.451,5.908 5.171,8.859 1.692,2.974 3.381,5.951 5.067,8.921 1.653,2.993 3.312,5.986 4.965,8.982 1.62,3.009 3.237,6.021 4.857,9.031 1.578,3.034 3.164,6.06 4.748,9.095 1.545,3.051 3.096,6.099 4.641,9.151 1.512,3.066 3.023,6.135 4.535,9.203 1.476,3.084 2.949,6.168 4.424,9.252 1.437,3.108 2.874,6.211 4.31,9.313 1.405,3.123 2.802,6.243 4.206,9.361 1.362,3.14 2.726,6.277 4.088,9.414 1.326,3.15 2.655,6.311 3.978,9.461 1.289,3.17 2.58,6.341 3.869,9.512 1.248,3.186 2.499,6.373 3.748,9.56 1.211,3.203 2.421,6.403 3.636,9.606 1.171,3.214 2.347,6.429 3.516,9.65 1.135,3.233 2.267,6.465 3.405,9.696 1.095,3.245 2.185,6.493 3.281,9.74 1.057,3.258 2.113,6.52 3.164,9.779 1.019,3.279 2.033,6.552 3.052,9.822 0.971,3.289 1.946,6.579 2.927,9.869 0.928,3.298 1.866,6.599 2.797,9.9 0.9,3.317 1.789,6.629 2.689,9.946 0.851,3.323 1.703,6.651 2.562,9.977 0.805,3.339 1.618,6.679 2.43,10.019 0.774,3.354 1.545,6.699 2.318,10.049 0.727,3.365 1.455,6.726 2.181,10.088 0.689,3.376 1.376,6.749 2.064,10.119 0.646,3.384 1.29,6.77 1.935,10.157 0.603,3.39 1.205,6.788 1.807,10.186 0.556,3.403 1.12,6.803 1.676,10.213 0.517,3.415 1.033,6.829 1.552,10.243 0.471,3.426 0.94,6.851 1.412,10.273 0.432,3.432 0.86,6.863 1.289,10.299 0.389,3.445 0.769,6.888 1.155,10.33 0.341,3.447 0.681,6.901 1.023,10.349 0.294,3.459 0.591,6.921 0.891,10.38 0.25,3.464 0.499,6.927 0.752,10.401 0.207,3.47 0.412,6.945 0.618,10.418 0.163,3.481 0.324,6.965 0.482,10.446 0.12,3.489 0.234,6.976 0.347,10.462 0.066,3.495 0.142,6.99 0.211,10.482 0.021,3.506 0.045,7.004 0.066,10.505 -0.011,2.357 -0.021,4.715 -0.027,7.073 -0.033,2.343 -0.064,4.689 -0.098,7.037 -0.049,2.341 -0.102,4.676 -0.158,7.009 -0.068,2.33 -0.14,4.66 -0.216,6.981 -0.091,2.318 -0.188,4.635 -0.277,6.954 -0.114,2.3 -0.228,4.607 -0.341,6.912 -0.137,2.302 -0.266,4.596 -0.406,6.893 -0.152,2.288 -0.305,4.571 -0.46,6.862 -0.169,2.272 -0.344,4.549 -0.516,6.826 -0.194,2.266 -0.385,4.536 -0.579,6.801 -0.217,2.256 -0.425,4.51 -0.641,6.766 -0.234,2.25 -0.46,4.493 -0.694,6.742 -0.255,2.239 -0.505,4.473 -0.755,6.711 -0.273,2.224 -0.541,4.451 -0.812,6.679 -0.291,2.221 -0.58,4.438 -0.871,6.651 -0.305,2.211 -0.618,4.422 -0.924,6.623 -0.33,2.2 -0.654,4.396 -0.984,6.597 -0.346,2.194 -0.688,4.38 -1.035,6.565 -0.363,2.183 -0.732,4.363 -1.095,6.541 -0.38,2.168 -0.76,4.338 -1.146,6.51 -0.399,2.157 -0.802,4.32 -1.201,6.478 -0.419,2.157 -0.835,4.303 -1.254,6.455 -0.437,2.141 -0.876,4.284 -1.311,6.424 -0.455,2.136 -0.905,4.266 -1.36,6.397 -0.471,2.125 -0.942,4.249 -1.415,6.374 -0.493,2.113 -0.981,4.227 -1.47,6.341 -0.504,2.107 -1.012,4.207 -1.516,6.315 -0.522,2.097 -1.047,4.194 -1.573,6.288 -0.541,2.086 -1.079,4.178 -1.62,6.26 -0.557,2.081 -1.112,4.158 -1.67,6.233 -0.575,2.072 -1.149,4.142 -1.723,6.208 -0.59,2.063 -1.182,4.119 -1.772,6.182 -0.607,2.051 -1.214,4.1 -1.816,6.152 -0.625,2.045 -1.252,4.083 -1.87,6.127 -0.641,2.033 -1.278,4.071 -1.919,6.103 -0.652,2.028 -1.313,4.05 -1.967,6.077 -0.669,2.017 -1.34,4.027 -2.012,6.046 -0.684,2.01 -1.373,4.015 -2.06,6.027 -0.699,1.999 -1.403,3.999 -2.103,5.999 -0.721,1.989 -1.436,3.984 -2.152,5.97 -0.732,1.982 -1.464,3.966 -2.2,5.949 -0.748,1.969 -1.492,3.947 -2.243,5.919 -0.761,1.964 -1.527,3.931 -2.288,5.894 -0.778,1.961 -1.557,3.917 -2.33,5.875 -0.793,1.95 -1.584,3.897 -2.381,5.844 -0.804,1.945 -1.612,3.88 -2.418,5.826 -0.819,1.929 -1.643,3.861 -2.461,5.798 -0.834,1.92 -1.669,3.846 -2.504,5.77 -0.852,1.917 -1.697,3.836 -2.552,5.75 -0.862,1.908 -1.725,3.816 -2.589,5.726 -0.876,1.897 -1.75,3.802 -2.631,5.7 -0.885,1.891 -1.779,3.789 -2.669,5.679 -0.904,1.879 -1.808,3.765 -2.71,5.651 -0.92,1.875 -1.835,3.756 -2.753,5.631 -0.933,1.869 -1.86,3.736 -2.791,5.605 -0.944,1.86 -1.887,3.723 -2.834,5.584 -0.956,1.854 -1.91,3.705 -2.87,5.556 -0.964,1.847 -1.938,3.694 -2.904,5.539 -0.981,1.842 -1.963,3.675 -2.947,5.516 -0.994,1.829 -1.986,3.66 -2.983,5.487 -1.003,1.826 -2.016,3.648 -3.02,5.47 -1.019,1.82 -2.036,3.631 -3.057,5.448 -1.029,1.808 -2.063,3.62 -3.09,5.426 -1.045,1.799 -2.085,3.603 -3.131,5.403 -2.12,3.577 -4.245,7.155 -6.364,10.737 -2.163,3.55 -4.332,7.101 -6.496,10.65 -2.21,3.52 -4.421,7.043 -6.635,10.566 -2.257,3.492 -4.506,6.987 -6.761,10.479 -2.3,3.467 -4.594,6.932 -6.891,10.397 -2.34,3.435 -4.679,6.878 -7.014,10.314 -2.38,3.409 -4.759,6.824 -7.134,10.233 -2.422,3.386 -4.834,6.771 -7.256,10.158 -2.452,3.355 -4.906,6.712 -7.362,10.07 -2.488,3.334 -4.982,6.663 -7.475,9.997 -2.522,3.307 -5.051,6.612 -7.577,9.919 -2.564,3.279 -5.118,6.563 -7.682,9.844 -2.596,3.257 -5.186,6.51 -7.783,9.766 -2.623,3.232 -5.253,6.463 -7.877,9.698 -2.654,3.209 -5.312,6.418 -7.972,9.622 -2.684,3.187 -5.367,6.368 -8.054,9.554 -2.716,3.161 -5.431,6.323 -8.147,9.482 -2.743,3.134 -5.481,6.276 -8.224,9.411 -2.765,3.121 -5.534,6.232 -8.304,9.345 -2.791,3.098 -5.584,6.188 -8.375,9.284 -2.818,3.067 -5.636,6.141 -8.451,9.214 -2.84,3.043 -5.675,6.094 -8.516,9.145 -2.865,3.029 -5.722,6.055 -8.584,9.089 -2.879,3.005 -5.762,6.017 -8.641,9.021 -2.901,2.987 -5.799,5.977 -8.701,8.965 -2.921,2.964 -5.836,5.929 -8.754,8.9 -2.937,2.949 -5.869,5.897 -8.806,8.846 -2.95,2.923 -5.903,5.855 -8.852,8.781 -2.965,2.907 -5.93,5.822 -8.894,8.732 -2.977,2.891 -5.959,5.784 -8.935,8.674 -2.99,2.873 -5.983,5.744 -8.97,8.617 -2.999,2.858 -6.006,5.715 -9.004,8.566 -3.011,2.841 -6.021,5.675 -9.039,8.515 -3.015,2.824 -6.039,5.642 -9.059,8.466 -3.024,2.804 -6.05,5.606 -9.079,8.412 -3.037,2.787 -6.072,5.578 -9.106,8.366 -3.037,2.774 -6.078,5.544 -9.117,8.318 -3.037,2.755 -6.083,5.51 -9.129,8.271 -3.045,2.739 -6.088,5.482 -9.134,8.225 -3.051,2.727 -6.102,5.453 -9.145,8.18 -3.051,2.71 -6.096,5.425 -9.148,8.134 -3.042,2.706 -6.093,5.405 -9.139,8.1 -6.088,5.359 -12.18,10.715 -18.268,16.071 -6.074,5.306 -12.146,10.613 -18.223,15.919 -3.023,2.635 -6.05,5.264 -9.079,7.9 -3.02,2.626 -6.044,5.251 -9.061,7.869 -3.01,2.612 -6.02,5.225 -9.031,7.833 -3.004,2.601 -6.006,5.203 -9.004,7.805 -2.993,2.591 -5.981,5.181 -8.976,7.767 -2.976,2.584 -5.952,5.161 -8.929,7.74 -2.964,2.569 -5.929,5.143 -8.895,7.709 -2.948,2.563 -5.902,5.12 -8.851,7.68 -2.937,2.553 -5.869,5.102 -8.806,7.653 -2.918,2.544 -5.834,5.085 -8.754,7.628 -2.897,2.535 -5.801,5.068 -8.697,7.603 -2.878,2.526 -5.76,5.054 -8.639,7.578 -2.864,2.52 -5.72,5.037 -8.585,7.553 -2.841,2.512 -5.675,5.023 -8.516,7.534 -2.815,2.504 -5.634,5.009 -8.446,7.516 -2.795,2.5 -5.589,4.993 -8.379,7.492 -2.766,2.494 -5.531,4.982 -8.305,7.475 -2.738,2.488 -5.48,4.97 -8.218,7.458 -2.715,2.483 -5.431,4.96 -8.147,7.443 -2.682,2.477 -5.369,4.954 -8.055,7.424 -2.654,2.472 -5.312,4.941 -7.966,7.413 -2.629,2.47 -5.253,4.937 -7.877,7.402 -2.591,2.467 -5.188,4.924 -7.784,7.39 -2.554,2.46 -5.117,4.92 -7.679,7.38 -2.522,2.453 -5.049,4.914 -7.578,7.368 -2.489,2.455 -4.977,4.907 -7.471,7.362 -2.454,2.449 -4.906,4.903 -7.361,7.35 -2.416,2.455 -4.834,4.904 -7.248,7.35 -2.379,2.449 -4.756,4.899 -7.137,7.345 -2.332,2.443 -4.674,4.892 -7.009,7.334 -2.294,2.449 -4.591,4.898 -6.89,7.34 -2.25,2.443 -4.504,4.892 -6.759,7.333 -2.211,2.449 -4.422,4.893 -6.629,7.339 -2.166,2.444 -4.336,4.887 -6.499,7.334 -2.119,2.443 -4.239,4.892 -6.358,7.339 -2.072,2.444 -4.147,4.893 -6.218,7.339 -2.031,2.449 -4.053,4.899 -6.076,7.345 -1.974,2.449 -3.952,4.898 -5.929,7.353 -1.92,2.447 -3.844,4.902 -5.772,7.356 -1.873,2.453 -3.748,4.907 -5.617,7.361 -1.822,2.455 -3.643,4.913 -5.465,7.373 -1.766,2.461 -3.533,4.921 -5.301,7.381 -0.862,1.233 -1.722,2.463 -2.584,3.697 -0.851,1.233 -1.698,2.467 -2.549,3.698 -0.83,1.232 -1.665,2.467 -2.502,3.697 -0.824,1.24 -1.64,2.473 -2.463,3.707 -0.808,1.236 -1.609,2.471 -2.416,3.708 -0.796,1.237 -1.584,2.477 -2.374,3.708 -0.778,1.24 -1.557,2.477 -2.336,3.717 -0.76,1.237 -1.52,2.482 -2.283,3.72 -0.749,1.24 -1.493,2.483 -2.245,3.722 -0.731,1.243 -1.459,2.483 -2.19,3.726 -0.722,1.244 -1.439,2.487 -2.155,3.732 -0.697,1.243 -1.401,2.489 -2.1,3.731 -0.687,1.246 -1.376,2.494 -2.064,3.74 -0.668,1.248 -1.339,2.493 -2.01,3.741 -0.652,1.251 -1.307,2.499 -1.959,3.75 C 1.278,-2.505 0.644,-1.257 0,0" /></g><g
           id="g5124"><g
             id="g5126" /><g
             id="g5132"><g
               style="opacity:0.5"
               id="g5134"
               clip-path="url(#clipPath5128)"><g
                 id="g5136"
                 transform="translate(1418.457,1156.4941)"><path
                   id="path5138"
                   style="fill:#405796;fill-opacity:1;fill-rule:nonzero;stroke:none"
                   d="m 0,0 c 93.974,-93.975 187.953,-187.955 281.928,-281.93 0.039,-1.295 0.078,-2.59 0.119,-3.885 0.056,-2.333 0.108,-4.668 0.158,-7.009 0.033,-2.348 0.065,-4.694 0.098,-7.037 0.006,-2.358 0.015,-4.716 0.027,-7.074 -0.021,-3.501 -0.045,-6.998 -0.066,-10.504 -0.07,-3.492 -0.145,-6.987 -0.211,-10.482 -0.114,-3.486 -0.228,-6.974 -0.347,-10.462 -0.158,-3.481 -0.319,-6.965 -0.482,-10.446 -0.206,-3.473 -0.412,-6.948 -0.619,-10.418 -0.252,-3.474 -0.501,-6.938 -0.751,-10.401 -0.3,-3.459 -0.597,-6.921 -0.891,-10.38 -0.342,-3.449 -0.683,-6.902 -1.024,-10.349 -0.385,-3.442 -0.765,-6.885 -1.154,-10.33 -0.43,-3.436 -0.857,-6.867 -1.289,-10.299 -0.473,-3.422 -0.941,-6.848 -1.412,-10.273 -0.52,-3.414 -1.035,-6.828 -1.553,-10.243 -0.555,-3.41 -1.119,-6.81 -1.676,-10.213 -0.601,-3.398 -1.204,-6.796 -1.806,-10.186 -0.646,-3.387 -1.289,-6.773 -1.936,-10.157 -0.687,-3.37 -1.375,-6.743 -2.063,-10.119 -0.727,-3.362 -1.454,-6.723 -2.181,-10.088 -0.773,-3.35 -1.545,-6.695 -2.318,-10.049 -0.813,-3.34 -1.625,-6.68 -2.43,-10.02 -0.859,-3.325 -1.711,-6.653 -2.562,-9.976 -0.9,-3.317 -1.789,-6.629 -2.689,-9.946 -0.932,-3.301 -1.869,-6.602 -2.798,-9.9 -0.98,-3.29 -1.956,-6.58 -2.926,-9.869 -1.019,-3.27 -2.034,-6.543 -3.052,-9.822 -1.051,-3.259 -2.108,-6.521 -3.164,-9.779 -1.096,-3.247 -2.186,-6.495 -3.282,-9.74 -1.137,-3.231 -2.269,-6.463 -3.404,-9.696 -1.17,-3.221 -2.346,-6.436 -3.516,-9.65 -1.215,-3.204 -2.425,-6.403 -3.636,-9.606 -1.249,-3.187 -2.5,-6.374 -3.748,-9.56 -1.289,-3.171 -2.58,-6.342 -3.869,-9.512 -1.324,-3.151 -2.653,-6.311 -3.978,-9.461 -1.362,-3.137 -2.726,-6.275 -4.089,-9.414 -1.403,-3.118 -2.801,-6.238 -4.205,-9.361 -1.436,-3.102 -2.873,-6.206 -4.31,-9.313 -1.475,-3.084 -2.949,-6.168 -4.424,-9.252 -1.512,-3.068 -3.024,-6.137 -4.535,-9.203 -1.545,-3.052 -3.096,-6.1 -4.641,-9.151 -1.584,-3.035 -3.17,-6.061 -4.748,-9.095 -1.62,-3.01 -3.237,-6.022 -4.858,-9.031 -1.652,-2.996 -3.311,-5.989 -4.964,-8.982 -1.686,-2.971 -3.375,-5.947 -5.068,-8.921 -1.719,-2.951 -3.448,-5.904 -5.171,-8.859 -1.757,-2.932 -3.513,-5.863 -5.275,-8.801 -1.794,-2.906 -3.583,-5.822 -5.381,-8.737 -1.822,-2.89 -3.65,-5.78 -5.474,-8.673 -1.865,-2.869 -3.721,-5.736 -5.584,-8.607 -1.892,-2.852 -3.79,-5.698 -5.681,-8.549 -1.925,-2.824 -3.853,-5.653 -5.783,-8.474 -1.961,-2.808 -3.919,-5.608 -5.88,-8.415 -1.987,-2.783 -3.981,-5.562 -5.975,-8.344 -2.022,-2.759 -4.051,-5.517 -6.072,-8.277 -2.059,-2.732 -4.113,-5.469 -6.172,-8.201 -2.088,-2.716 -4.174,-5.426 -6.266,-8.136 -2.116,-2.687 -4.235,-5.372 -6.354,-8.061 -2.152,-2.665 -4.308,-5.328 -6.454,-7.993 -2.181,-2.635 -4.363,-5.276 -6.543,-7.914 -2.217,-2.613 -4.425,-5.225 -6.641,-7.839 -2.244,-2.59 -4.488,-5.18 -6.726,-7.763 -2.272,-2.564 -4.543,-5.126 -6.825,-7.692 -2.298,-2.535 -4.597,-5.073 -6.906,-7.608 -2.33,-2.51 -4.662,-5.021 -6.992,-7.531 -2.363,-2.483 -4.727,-4.965 -7.084,-7.448 -2.391,-2.46 -4.782,-4.914 -7.176,-7.367 -2.413,-2.431 -4.832,-4.865 -7.254,-7.289 -2.449,-2.402 -4.894,-4.801 -7.343,-7.203 -2.473,-2.375 -4.95,-4.748 -7.426,-7.117 -2.5,-2.347 -5.004,-4.694 -7.509,-7.04 -2.526,-2.316 -5.062,-4.63 -7.589,-6.946 -2.562,-2.292 -5.117,-4.574 -7.675,-6.862 -2.585,-2.256 -5.171,-4.515 -7.755,-6.771 -2.613,-2.227 -5.226,-4.454 -7.839,-6.688 -2.635,-2.199 -5.276,-4.39 -7.913,-6.59 -2.664,-2.169 -5.329,-4.332 -7.992,-6.504 -2.693,-2.136 -5.381,-4.271 -8.071,-6.408 -2.716,-2.107 -5.431,-4.213 -8.146,-6.315 -2.744,-2.08 -5.484,-4.153 -8.228,-6.228 -2.765,-2.038 -5.533,-4.082 -8.299,-6.121 -2.787,-2.011 -5.578,-4.021 -8.368,-6.033 -2.815,-1.977 -5.634,-3.955 -8.446,-5.938 -2.84,-1.942 -5.68,-3.883 -8.521,-5.834 -2.862,-1.908 -5.725,-3.822 -8.591,-5.736 -2.889,-1.875 -5.774,-3.756 -8.662,-5.636 -2.906,-1.847 -5.822,-3.686 -8.731,-5.534 -2.935,-1.81 -5.866,-3.617 -8.804,-5.43 -2.954,-1.779 -5.914,-3.556 -8.867,-5.329 -2.977,-1.742 -5.959,-3.481 -8.935,-5.225 -3.006,-1.703 -6.005,-3.414 -9.004,-5.117 -3.028,-1.67 -6.051,-3.34 -9.073,-5.01 -3.045,-1.637 -6.091,-3.274 -9.133,-4.91 -3.068,-1.594 -6.136,-3.198 -9.198,-4.793 -3.09,-1.565 -6.18,-3.125 -9.264,-4.688 -3.11,-1.527 -6.221,-3.051 -9.329,-4.579 -3.13,-1.487 -6.254,-2.975 -9.382,-4.463 -3.155,-1.456 -6.303,-2.904 -9.448,-4.352 -3.171,-1.414 -6.341,-2.828 -9.511,-4.243 -3.193,-1.376 -6.379,-2.749 -9.57,-4.125 -3.206,-1.334 -6.415,-2.668 -9.625,-4.011 -3.225,-1.295 -6.452,-2.59 -9.685,-3.892 -3.243,-1.253 -6.491,-2.515 -9.736,-3.772 -3.267,-1.221 -6.533,-2.441 -9.8,-3.656 -3.282,-1.181 -6.565,-2.358 -9.85,-3.54 -3.301,-1.136 -6.606,-2.279 -9.907,-3.414 -3.318,-1.101 -6.64,-2.199 -9.958,-3.295 -3.334,-1.056 -6.674,-2.119 -10.008,-3.175 -3.358,-1.016 -6.709,-2.028 -10.066,-3.046 -3.37,-0.976 -6.743,-1.952 -10.113,-2.923 -3.391,-0.933 -6.776,-1.87 -10.169,-2.803 -3.402,-0.892 -6.802,-1.777 -10.213,-2.67 -3.42,-0.846 -6.839,-1.698 -10.259,-2.544 -3.437,-0.807 -6.873,-1.608 -10.31,-2.413 -3.454,-0.763 -6.901,-1.523 -10.354,-2.291 -3.467,-0.716 -6.938,-1.437 -10.402,-2.152 -3.483,-0.678 -6.965,-1.346 -10.448,-2.023 -3.498,-0.629 -6.998,-1.262 -10.49,-1.891 -3.512,-0.586 -7.03,-1.17 -10.538,-1.756 -3.523,-0.538 -7.051,-1.084 -10.579,-1.625 -3.54,-0.494 -7.077,-0.988 -10.616,-1.487 -3.555,-0.45 -7.105,-0.899 -10.662,-1.348 -3.57,-0.402 -7.131,-0.805 -10.698,-1.21 -3.583,-0.357 -7.161,-0.715 -10.743,-1.072 -3.589,-0.315 -7.184,-0.625 -10.776,-0.939 -3.605,-0.26 -7.209,-0.526 -10.814,-0.788 -3.62,-0.216 -7.237,-0.431 -10.852,-0.654 -3.628,-0.164 -7.258,-0.336 -10.889,-0.504 -3.642,-0.125 -7.281,-0.244 -10.923,-0.363 -3.652,-0.076 -7.307,-0.151 -10.959,-0.223 -3.664,-0.021 -7.328,-0.047 -10.992,-0.074 -3.657,0.027 -7.321,0.053 -10.985,0.074 -3.652,0.072 -7.305,0.147 -10.959,0.223 -1.953,0.06 -3.908,0.13 -5.861,0.191 -180.088,180.087 -360.17,360.17 -540.258,540.254 l 0,614.099 c 0.059,0.15 0.114,0.297 0.172,0.443 l 147.072,0 c 21.586,-21.579 43.166,-43.162 64.748,-64.742 0.58,0.612 1.151,1.226 1.731,1.838 0.716,0.748 1.439,1.497 2.155,2.243 0.737,0.755 1.476,1.503 2.214,2.261 0.757,0.754 1.517,1.513 2.273,2.271 0.778,0.76 1.557,1.524 2.334,2.283 0.801,0.763 1.598,1.528 2.397,2.297 0.817,0.76 1.636,1.526 2.454,2.293 0.835,0.766 1.67,1.534 2.511,2.3 0.859,0.769 1.717,1.528 2.568,2.297 0.882,0.765 1.756,1.534 2.629,2.294 0.898,0.767 1.789,1.528 2.688,2.288 0.916,0.763 1.831,1.522 2.744,2.28 0.937,0.754 1.869,1.509 2.8,2.266 0.956,0.749 1.909,1.501 2.864,2.25 0.97,0.743 1.943,1.486 2.914,2.232 0.988,0.738 1.98,1.477 2.97,2.208 1.01,0.736 2.018,1.462 3.028,2.189 1.028,0.72 2.057,1.437 3.084,2.158 1.045,0.71 2.092,1.42 3.137,2.13 1.068,0.694 2.13,1.392 3.193,2.092 1.084,0.687 2.168,1.373 3.248,2.06 1.103,0.671 2.205,1.349 3.306,2.017 1.12,0.66 2.238,1.317 3.358,1.977 1.135,0.642 2.272,1.29 3.41,1.931 1.151,0.633 2.305,1.256 3.464,1.887 1.171,0.607 2.341,1.222 3.517,1.83 1.187,0.596 2.38,1.187 3.567,1.777 0.603,0.289 1.204,0.58 1.806,0.869 0.607,0.283 1.209,0.569 1.816,0.852 0.607,0.279 1.224,0.562 1.831,0.84 0.613,0.275 1.226,0.546 1.845,0.824 0.621,0.269 1.24,0.535 1.858,0.806 0.618,0.262 1.245,0.531 1.87,0.791 0.623,0.255 1.253,0.516 1.88,0.772 0.63,0.255 1.259,0.508 1.898,0.762 0.634,0.244 1.264,0.494 1.902,0.738 0.641,0.238 1.285,0.482 1.926,0.721 0.642,0.239 1.283,0.472 1.93,0.705 0.649,0.232 1.294,0.461 1.945,0.687 0.651,0.223 1.305,0.449 1.957,0.672 0.66,0.213 1.32,0.43 1.973,0.647 0.666,0.211 1.323,0.421 1.988,0.629 0.664,0.205 1.329,0.405 1.995,0.607 0.669,0.2 1.339,0.394 2.011,0.592 0.668,0.187 1.345,0.383 2.016,0.568 0.68,0.183 1.357,0.363 2.033,0.546 0.688,0.175 1.368,0.353 2.05,0.527 0.682,0.172 1.37,0.335 2.059,0.507 0.684,0.158 1.378,0.322 2.066,0.484 0.699,0.152 1.392,0.304 2.086,0.46 0.698,0.147 1.398,0.289 2.094,0.435 0.699,0.137 1.403,0.28 2.107,0.416 0.705,0.131 1.415,0.262 2.12,0.392 0.71,0.119 1.419,0.243 2.13,0.363 0.715,0.119 1.432,0.233 2.141,0.347 0.722,0.107 1.438,0.211 2.158,0.318 0.725,0.098 1.446,0.191 2.166,0.295 0.727,0.086 1.454,0.178 2.181,0.269 0.726,0.077 1.462,0.158 2.194,0.239 0.733,0.071 1.465,0.146 2.197,0.213 0.741,0.064 1.478,0.131 2.215,0.194 0.744,0.05 1.485,0.108 2.229,0.158 0.742,0.047 1.492,0.091 2.238,0.136 0.748,0.041 1.497,0.074 2.249,0.107 0.755,0.032 1.503,0.059 2.261,0.081 0.76,0.017 1.517,0.034 2.271,0.053 0.76,0.011 1.524,0.017 2.284,0.023 0.767,0 1.533,0 2.301,-0.006 0.766,-0.012 1.535,-0.026 2.306,-0.036 0.773,-0.023 1.545,-0.044 2.318,-0.062 0.777,-0.033 1.551,-0.068 2.33,-0.096 0.777,-0.045 1.562,-0.087 2.338,-0.13 0.785,-0.053 1.571,-0.104 2.352,-0.153 0.791,-0.064 1.582,-0.125 2.369,-0.189 0.791,-0.074 1.581,-0.147 2.375,-0.222 0.795,-0.086 1.592,-0.169 2.385,-0.249 0.802,-0.098 1.597,-0.194 2.399,-0.283 0.799,-0.109 1.607,-0.217 2.407,-0.32 0.808,-0.119 1.616,-0.233 2.419,-0.352 0.814,-0.125 1.621,-0.255 2.433,-0.385 0.813,-0.137 1.625,-0.28 2.443,-0.416 0.819,-0.152 1.629,-0.3 2.448,-0.455 0.823,-0.158 1.647,-0.322 2.464,-0.482 0.825,-0.176 1.649,-0.353 2.478,-0.522 0.823,-0.189 1.653,-0.375 2.482,-0.557 1.107,-0.261 2.222,-0.522 3.33,-0.783 1.084,-0.269 2.171,-0.541 3.261,-0.806 1.063,-0.276 2.13,-0.553 3.198,-0.825 1.051,-0.291 2.103,-0.574 3.151,-0.857 1.04,-0.297 2.075,-0.586 3.115,-0.882 1.026,-0.307 2.056,-0.613 3.079,-0.921 1.021,-0.316 2.038,-0.634 3.063,-0.954 1.009,-0.336 2.027,-0.663 3.037,-0.999 1.017,-0.346 2.027,-0.693 3.039,-1.04 1.013,-0.363 2.027,-0.726 3.041,-1.09 1.015,-0.38 2.033,-0.762 3.048,-1.143 1.028,-0.402 2.052,-0.801 3.073,-1.203 1.035,-0.416 2.069,-0.835 3.104,-1.256 1.042,-0.442 2.088,-0.88 3.14,-1.324 0.529,-0.227 1.057,-0.46 1.586,-0.688 0.533,-0.232 1.063,-0.466 1.596,-0.705 0.54,-0.238 1.072,-0.477 1.613,-0.721 0.539,-0.244 1.085,-0.488 1.623,-0.738 0.552,-0.249 1.098,-0.504 1.648,-0.754 0.551,-0.264 1.104,-0.518 1.659,-0.779 0.556,-0.266 1.12,-0.528 1.675,-0.796 0.569,-0.273 1.137,-0.544 1.7,-0.818 0.574,-0.278 1.148,-0.555 1.715,-0.835 0.579,-0.289 1.159,-0.572 1.744,-0.858 0.586,-0.293 1.171,-0.585 1.761,-0.879 0.59,-0.302 1.188,-0.601 1.784,-0.904 0.601,-0.305 1.204,-0.613 1.805,-0.921 0.614,-0.316 1.23,-0.63 1.837,-0.948 0.407,-0.209 0.813,-0.419 1.22,-0.63 0.006,-0.006 0.011,-0.006 0.017,-0.011 21.898,-21.898 43.802,-43.803 65.701,-65.703 0.006,28.172 0.014,56.347 0.014,84.518 0.124,0.074 0.244,0.146 0.364,0.226 l 164.402,0 c 86.146,-86.153 172.299,-172.3 258.446,-258.452 -0.076,86.125 -0.15,172.246 -0.222,258.372 0.078,0.125 0.164,0.255 0.244,0.38 L 0,0 Z" /></g></g></g></g><g
           id="g5140"><g
             id="g5142" /><g
             id="g5148"><g
               id="g5150"
               clip-path="url(#clipPath5144)"><g
                 id="g5152"
                 transform="translate(830.2837,1156.019)"><path
                   id="path5154"
                   style="fill:#ffffff;fill-opacity:1;fill-rule:nonzero;stroke:none"
                   d="m 0,0 c 0.113,0.057 0.227,0.17 0.341,0.227 l 0.511,0 0.511,0 0.625,0 0.682,0 0.795,0 0.398,0 0.454,0 0.512,0 0.511,0 0.511,0 0.511,0 0.568,0 1.193,0 1.307,0 1.363,0 1.42,0 1.534,0 1.59,0 1.648,0 1.704,0 1.818,0 1.874,0 1.932,0 1.931,0 2.046,0 2.101,0 2.159,0 2.158,0 2.272,0 2.273,0 2.272,0 2.386,0 2.386,0 2.443,0 2.442,0 2.5,0 2.556,0 2.499,0 2.614,0 5.169,0 5.226,0 10.623,0 10.566,0 5.283,0 5.169,0 2.556,0 2.557,0 2.499,0 2.5,0 2.499,0 2.386,0 2.386,0 2.386,0 2.329,0 2.272,0 2.215,0 2.216,0 2.159,0 2.045,0 2.045,0 1.988,0 1.931,0 1.818,0 1.818,0 1.761,0 1.647,0 1.591,0 1.477,0 1.477,0 1.363,0 1.25,0 1.192,0 0.569,0 0.568,0 0.511,0 0.511,0 0.455,0 0.454,0 0.852,0 0.739,0 0.625,0 0.568,0 0.454,0 0.568,0 c 0,-0.114 0.057,-0.284 0.114,-0.397 l 0,-0.512 0,-0.738 0,-0.398 0,-0.511 0,-0.511 0,-0.569 0,-0.624 0,-0.682 0,-0.682 0,-0.738 0,-0.796 0,-0.852 0,-0.908 0,-0.91 0,-0.965 0,-1.022 0,-1.08 0,-1.079 0,-1.136 0,-1.193 0,-1.193 0,-1.25 0,-1.25 0,-1.363 0,-1.364 0,-1.363 0,-1.477 0,-1.42 0,-1.534 0,-1.533 0,-1.534 0,-1.591 0,-1.647 0,-1.648 0,-1.704 0,-1.704 0,-1.761 0,-1.761 0,-1.818 0,-1.874 0,-1.818 0,-1.931 0,-1.875 0,-1.931 0,-1.989 0,-1.988 0,-2.045 0,-1.988 0,-2.045 0,-4.204 0,-4.26 0,-4.374 0,-4.375 0,-4.487 0,-4.601 0,-4.602 0,-4.658 0,-4.715 0,-4.771 0,-4.772 0,-4.886 0,-4.828 0,-4.942 0,-9.884 0,-9.885 0,-19.882 0,-9.884 0,-4.942 0,-4.885 0,-4.829 0,-4.829 0,-4.771 0,-4.716 0,-4.657 0,-4.658 0,-4.545 0,-4.488 0,-4.431 0,-4.374 0,-4.26 0,-4.204 0,-2.045 0,-2.045 0,-2.045 0,-1.988 0,-1.989 0,-1.931 0,-1.931 0,-1.875 0,-1.874 0,-1.875 0,-1.818 0,-1.76 0,-1.762 0,-1.761 0,-1.704 0,-1.648 0,-1.646 0,-1.591 0,-1.591 0,-1.533 0,-1.535 0,-1.476 0,-1.42 0,-1.42 0,-1.364 0,-1.363 0,-1.307 0,-1.25 0,-1.192 0,-1.193 0,-1.193 0,-1.08 0,-1.079 0,-1.022 0,-0.966 0,-0.966 0,-0.909 0,-0.852 0,-0.795 0,-0.796 0,-0.738 0,-0.681 0,-0.625 0,-0.568 0,-0.569 0,-0.511 0,-0.852 0,-0.625 0,-0.568 0,-0.454 0,-0.739 0,-2.897 c 0.056,-0.966 0.056,-1.931 0.056,-2.897 0.058,-0.966 0.058,-1.931 0.114,-2.897 0,-0.966 0.057,-1.875 0.114,-2.84 0,-0.966 0.057,-1.932 0.113,-2.841 0.057,-0.966 0.114,-1.931 0.171,-2.84 0.057,-0.966 0.113,-1.875 0.17,-2.84 0.057,-0.909 0.114,-1.875 0.228,-2.784 0.056,-0.966 0.17,-1.875 0.227,-2.783 0.113,-0.966 0.17,-1.875 0.284,-2.784 0.113,-0.909 0.17,-1.875 0.284,-2.783 0.113,-0.909 0.227,-1.818 0.341,-2.727 0.113,-0.909 0.227,-1.818 0.341,-2.727 0.113,-0.909 0.283,-1.818 0.397,-2.67 0.114,-0.908 0.284,-1.818 0.398,-2.726 0.17,-0.852 0.284,-1.762 0.454,-2.67 0.171,-0.852 0.284,-1.762 0.455,-2.614 0.17,-0.908 0.341,-1.76 0.511,-2.669 0.17,-0.853 0.341,-1.705 0.511,-2.613 0.171,-0.852 0.398,-1.704 0.568,-2.556 0.171,-0.852 0.398,-1.762 0.568,-2.614 0.228,-0.852 0.455,-1.647 0.625,-2.556 0.228,-0.795 0.455,-1.647 0.625,-2.499 0.227,-0.852 0.455,-1.648 0.682,-2.5 0.227,-0.852 0.454,-1.647 0.681,-2.499 0.284,-0.796 0.511,-1.648 0.739,-2.443 0.284,-0.852 0.511,-1.647 0.795,-2.443 0.227,-0.795 0.511,-1.647 0.795,-2.443 0.227,-0.795 0.512,-1.59 0.796,-2.385 0.284,-0.796 0.568,-1.591 0.852,-2.386 0.284,-0.739 0.568,-1.534 0.852,-2.329 0.341,-0.796 0.625,-1.534 0.909,-2.329 0.341,-0.739 0.625,-1.534 0.965,-2.273 0.341,-0.738 0.625,-1.533 0.966,-2.272 0.341,-0.738 0.682,-1.477 1.023,-2.215 0.34,-0.739 0.681,-1.534 1.022,-2.272 0.341,-0.682 0.682,-1.42 1.023,-2.159 0.398,-0.738 0.738,-1.42 1.079,-2.159 0.398,-0.738 0.795,-1.42 1.136,-2.159 0.398,-0.681 0.795,-1.363 1.136,-2.101 0.398,-0.682 0.796,-1.363 1.193,-2.045 0.398,-0.682 0.795,-1.363 1.25,-2.045 0.397,-0.682 0.795,-1.364 1.193,-2.045 0.454,-0.682 0.852,-1.307 1.307,-1.989 0.454,-0.624 0.852,-1.306 1.306,-1.931 0.454,-0.681 0.909,-1.306 1.306,-1.931 0.455,-0.625 0.966,-1.25 1.421,-1.875 0.454,-0.625 0.908,-1.249 1.363,-1.874 0.511,-0.625 0.966,-1.25 1.42,-1.875 0.512,-0.568 1.023,-1.193 1.477,-1.761 0.511,-0.625 1.022,-1.193 1.477,-1.761 0.511,-0.568 1.022,-1.193 1.534,-1.761 0.511,-0.568 1.022,-1.136 1.591,-1.704 0.511,-0.511 1.022,-1.079 1.59,-1.648 0.511,-0.568 1.079,-1.079 1.591,-1.647 0.568,-0.511 1.079,-1.023 1.647,-1.591 0.568,-0.511 1.136,-1.022 1.704,-1.533 0.568,-0.511 1.136,-1.023 1.704,-1.534 0.568,-0.511 1.193,-1.023 1.761,-1.477 0.568,-0.511 1.193,-0.966 1.761,-1.477 0.625,-0.455 1.25,-0.966 1.818,-1.42 0.625,-0.455 1.25,-0.909 1.875,-1.364 0.625,-0.454 1.249,-0.908 1.874,-1.363 0.625,-0.397 1.25,-0.852 1.932,-1.307 0.624,-0.397 1.249,-0.795 1.931,-1.249 0.625,-0.398 1.307,-0.796 1.988,-1.193 0.625,-0.398 1.307,-0.795 1.989,-1.193 0.681,-0.398 1.363,-0.795 2.045,-1.136 0.681,-0.398 1.42,-0.739 2.102,-1.136 0.681,-0.341 1.363,-0.682 2.101,-1.079 0.682,-0.285 1.421,-0.625 2.159,-0.966 0.681,-0.341 1.42,-0.682 2.158,-1.023 0.739,-0.284 1.478,-0.625 2.216,-0.909 0.739,-0.341 1.477,-0.624 2.215,-0.909 0.796,-0.284 1.534,-0.567 2.329,-0.852 0.739,-0.284 1.534,-0.568 2.273,-0.795 0.795,-0.284 1.59,-0.511 2.385,-0.795 0.796,-0.227 1.591,-0.455 2.386,-0.739 0.796,-0.17 1.591,-0.397 2.386,-0.625 0.852,-0.227 1.648,-0.454 2.443,-0.681 0.852,-0.171 1.647,-0.398 2.499,-0.568 0.852,-0.171 1.704,-0.341 2.5,-0.511 l 2.556,-0.512 c 0.909,-0.17 1.761,-0.341 2.613,-0.454 0.852,-0.114 1.761,-0.284 2.614,-0.398 0.908,-0.114 1.76,-0.227 2.669,-0.398 0.909,-0.056 1.818,-0.17 2.67,-0.283 0.909,-0.058 1.818,-0.171 2.727,-0.228 0.909,-0.114 1.874,-0.17 2.783,-0.227 0.909,-0.057 1.875,-0.114 2.784,-0.17 0.966,-0.058 1.874,-0.058 2.84,-0.114 0.966,0 1.931,-0.057 2.897,-0.057 l 2.897,0 2.84,0 c 0.966,0.057 1.932,0.113 2.898,0.113 0.909,0.058 1.818,0.114 2.783,0.114 0.909,0.114 1.875,0.171 2.784,0.227 0.909,0.057 1.818,0.171 2.726,0.228 0.91,0.114 1.818,0.17 2.727,0.284 0.852,0.113 1.761,0.227 2.67,0.341 0.852,0.113 1.761,0.227 2.613,0.341 0.852,0.17 1.761,0.34 2.613,0.454 0.852,0.17 1.705,0.341 2.557,0.454 0.852,0.171 1.704,0.398 2.556,0.568 0.795,0.171 1.647,0.341 2.499,0.569 0.796,0.17 1.648,0.397 2.443,0.567 0.795,0.228 1.647,0.455 2.443,0.682 0.795,0.228 1.59,0.455 2.385,0.682 0.796,0.284 1.591,0.511 2.329,0.739 0.796,0.283 1.591,0.567 2.329,0.795 0.796,0.284 1.534,0.568 2.33,0.852 0.738,0.284 1.477,0.568 2.215,0.852 0.795,0.341 1.534,0.625 2.272,0.965 0.682,0.285 1.42,0.625 2.159,0.966 0.738,0.284 1.42,0.625 2.159,0.966 0.738,0.341 1.42,0.682 2.101,1.079 0.739,0.341 1.421,0.682 2.102,1.08 0.682,0.341 1.364,0.738 2.045,1.136 0.682,0.341 1.364,0.738 2.045,1.136 0.682,0.398 1.307,0.795 1.988,1.193 0.625,0.454 1.307,0.852 1.932,1.25 0.682,0.454 1.306,0.852 1.931,1.306 0.625,0.455 1.25,0.852 1.932,1.307 0.568,0.454 1.193,0.908 1.817,1.363 0.625,0.454 1.25,0.909 1.818,1.42 0.625,0.455 1.193,0.909 1.818,1.42 0.568,0.455 1.193,0.966 1.761,1.477 0.568,0.512 1.136,1.023 1.704,1.477 0.568,0.511 1.137,1.08 1.704,1.591 0.568,0.511 1.137,1.022 1.648,1.534 l 1.647,1.647 c 0.512,0.568 1.079,1.079 1.591,1.647 0.511,0.568 1.079,1.136 1.591,1.647 0.511,0.625 1.022,1.194 1.533,1.762 0.455,0.568 0.966,1.136 1.477,1.76 0.512,0.569 0.966,1.194 1.477,1.762 0.454,0.625 0.966,1.193 1.42,1.818 0.511,0.625 0.966,1.249 1.42,1.874 0.455,0.568 0.909,1.25 1.364,1.875 0.454,0.625 0.909,1.25 1.363,1.874 0.454,0.682 0.852,1.307 1.307,1.932 0.454,0.681 0.852,1.363 1.306,1.988 0.398,0.682 0.795,1.363 1.25,2.045 0.397,0.625 0.795,1.307 1.193,1.988 0.397,0.682 0.795,1.42 1.193,2.102 0.397,0.681 0.795,1.364 1.193,2.045 0.34,0.738 0.738,1.42 1.079,2.159 0.398,0.681 0.738,1.42 1.136,2.158 0.341,0.682 0.682,1.42 1.08,2.159 0.34,0.739 0.681,1.477 1.022,2.216 0.341,0.738 0.625,1.476 0.966,2.215 0.341,0.738 0.681,1.477 1.022,2.272 0.284,0.739 0.625,1.477 0.909,2.272 0.341,0.739 0.625,1.534 0.909,2.329 0.341,0.739 0.625,1.534 0.909,2.33 0.284,0.738 0.568,1.533 0.852,2.329 0.284,0.795 0.568,1.59 0.852,2.385 0.227,0.796 0.511,1.591 0.795,2.386 0.227,0.852 0.512,1.648 0.739,2.443 0.284,0.795 0.511,1.647 0.738,2.442 0.227,0.852 0.512,1.648 0.739,2.5 0.227,0.795 0.454,1.647 0.681,2.499 0.228,0.852 0.398,1.648 0.625,2.5 0.227,0.852 0.455,1.704 0.625,2.556 0.227,0.852 0.398,1.704 0.625,2.556 0.17,0.853 0.341,1.705 0.511,2.613 0.228,0.853 0.398,1.705 0.568,2.557 0.171,0.909 0.341,1.761 0.512,2.67 0.17,0.852 0.34,1.761 0.454,2.613 0.171,0.909 0.341,1.761 0.454,2.67 0.171,0.908 0.285,1.761 0.455,2.67 0.114,0.908 0.227,1.818 0.397,2.726 0.114,0.852 0.228,1.761 0.341,2.67 0.114,0.909 0.228,1.818 0.342,2.727 0.113,0.966 0.227,1.874 0.283,2.783 0.114,0.909 0.228,1.818 0.284,2.784 0.114,0.909 0.171,1.817 0.285,2.727 0.056,0.965 0.113,1.874 0.227,2.84 0.056,0.909 0.113,1.875 0.17,2.783 0.057,0.966 0.114,1.875 0.17,2.841 0.057,0.965 0.114,1.874 0.171,2.84 0.057,0.966 0.057,1.874 0.114,2.84 0,0.966 0.056,1.932 0.056,2.897 0.057,0.966 0.057,1.932 0.114,2.841 l 0,2.954 0,1.42 0,0.965 0,0.455 0,0.568 0,0.739 0,0.454 0,0.511 0,0.568 0,0.568 0,0.625 0,0.738 0,0.683 0,0.794 0,0.853 0,0.852 0,0.909 0,0.908 0,1.023 0,1.022 0,1.08 0,1.079 0,1.193 0,1.193 0,1.193 0,1.307 0,1.306 0,1.307 0,1.363 0,1.42 0,1.477 0,1.477 0,1.534 0,1.534 0,1.59 0,1.591 0,1.647 0,1.704 0,1.705 0,1.704 0,1.761 0,1.817 0,1.818 0,1.875 0,1.875 0,1.874 0,1.931 0,1.932 0,1.988 0,1.989 c 0,0.681 0,1.363 -0.057,2.044 l 0,2.045 0,2.045 0,2.102 0,4.261 0,4.317 0,4.431 0,4.431 0,4.544 0,4.601 0,4.659 0,4.714 0,4.772 0,4.772 0,4.885 c 0,1.591 -0.057,3.238 -0.057,4.829 l 0,4.942 0,4.885 0,9.941 0,9.942 0,9.941 0,9.941 0,9.884 0,4.885 0,4.829 c -0.056,1.647 -0.056,3.238 -0.056,4.828 l 0,4.829 0,4.715 0,4.715 0,4.601 0,4.601 0,4.545 0,4.431 0,4.374 0,4.317 0,4.204 0,2.101 0,2.045 0,2.046 0,1.987 c 0,0.683 0,1.364 -0.057,2.046 l 0,1.931 0,1.932 0,1.931 0,1.874 0,1.875 0,1.818 0,1.818 0,1.761 0,1.761 0,1.704 0,1.704 0,1.648 0,1.647 0,1.591 0,1.59 0,1.534 0,1.477 0,1.477 0,1.42 0,1.363 0,1.364 0,1.363 0,1.25 0,1.249 0,1.193 0,1.193 0,1.136 0,1.079 0,1.08 0,1.023 0,0.965 0,0.909 0,0.852 0,0.852 0,0.796 0,0.738 0,0.739 0,0.681 0,0.568 0,0.568 0,0.512 0,0.511 0,0.397 0,0.739 0,0.511 c 0.057,0.114 0.17,0.227 0.227,0.341 l 0.454,0 0.455,0 0.568,0 0.625,0 0.795,0 0.397,0 0.398,0 0.455,0 0.511,0 0.511,0 0.512,0 0.568,0 1.136,0 1.249,0 1.307,0 1.42,0 1.477,0 1.591,0 1.59,0 1.704,0 1.818,0 1.818,0 1.874,0 1.989,0 1.988,0 2.102,0 2.102,0 2.158,0 2.216,0 2.272,0 2.329,0 2.329,0 2.386,0 2.442,0 2.443,0 2.5,0 2.499,0 2.556,0 5.113,0 5.226,0 5.283,0 5.34,0 10.623,0 5.283,0 5.226,0 5.226,0 2.556,0 2.5,0 2.556,0 2.443,0 2.5,0 2.385,0 2.386,0 2.329,0 2.329,0 2.272,0 2.216,0 2.158,0 2.102,0 2.045,0 2.045,0 1.932,0 1.874,0 1.875,0 1.761,0 1.704,0 1.591,0 1.534,0 1.476,0 1.421,0 1.306,0 1.25,0 1.193,0 0.511,0 0.511,0 0.512,0 0.454,0 0.454,0 0.853,0 0.738,0 0.625,0 0.568,0 0.625,0 0.511,0 0,-0.852 0,-0.739 0,-0.397 0,-0.511 0,-0.512 0,-0.568 0,-0.568 0,-0.681 0,-0.739 0,-0.738 0,-0.796 0,-0.852 0,-0.852 0,-0.909 0,-0.965 0,-1.023 0,-1.08 0,-1.079 0,-1.136 0,-1.193 0,-1.193 0,-1.249 0,-1.25 0,-1.363 0,-1.364 0,-1.363 0,-1.42 0,-1.477 0,-1.477 0,-1.534 0,-1.59 0,-1.591 0,-1.647 0,-1.648 0,-1.704 0,-1.704 0,-1.761 0,-1.761 0,-1.818 c 0,-0.625 -0.057,-1.193 -0.057,-1.818 l 0,-1.875 0,-1.874 0,-1.931 0,-1.932 0,-1.931 0,-2.046 0,-1.987 0,-2.046 0,-2.045 0,-2.101 0,-4.204 0,-4.317 0,-4.374 0,-4.431 0,-4.545 0,-4.601 0,-4.601 0,-4.715 0,-4.715 0,-4.829 0,-4.828 0,-4.829 0,-4.885 0,-9.884 0,-9.941 0,-9.941 0,-9.942 0,-9.941 0,-4.885 0,-4.942 0,-4.829 0,-4.885 0,-4.772 0,-4.772 0,-4.714 0,-4.659 0,-4.601 0,-4.544 0,-4.431 0,-4.431 0,-4.317 0,-4.261 0,-2.102 0,-2.045 0,-2.045 0,-2.044 0,-1.989 0,-1.988 0,-1.932 0,-1.931 0,-1.874 0,-1.875 0,-1.875 0,-1.818 0,-1.817 0,-1.761 0,-1.704 0,-1.705 0,-1.704 0,-1.647 0,-1.591 0,-1.59 0,-1.534 0,-1.534 0,-1.477 0,-1.477 0,-1.42 0,-1.363 0,-1.307 0,-1.306 0,-1.307 0,-1.193 0,-1.193 0,-1.193 0,-1.079 0,-1.08 0,-1.022 0,-1.023 0,-0.908 0,-0.909 0,-0.852 0,-0.853 0,-0.794 0,-0.683 0,-0.738 0,-0.625 0,-0.568 0,-0.568 0,-0.511 0,-0.454 0,-0.739 0,-0.568 0,-0.455 0,-0.454 0,-1.42 c 0,-0.966 -0.056,-1.931 -0.056,-2.84 0,-1.932 -0.058,-3.807 -0.114,-5.738 -0.057,-1.874 -0.114,-3.806 -0.171,-5.68 -0.056,-1.932 -0.17,-3.807 -0.284,-5.681 -0.113,-1.875 -0.227,-3.749 -0.341,-5.624 -0.113,-1.931 -0.283,-3.749 -0.397,-5.624 -0.17,-1.874 -0.341,-3.749 -0.511,-5.624 -0.171,-1.817 -0.398,-3.692 -0.569,-5.567 -0.227,-1.817 -0.454,-3.692 -0.681,-5.51 -0.227,-1.818 -0.454,-3.635 -0.739,-5.51 -0.227,-1.817 -0.511,-3.635 -0.795,-5.453 -0.284,-1.818 -0.568,-3.636 -0.852,-5.454 -0.341,-1.761 -0.682,-3.578 -0.966,-5.396 -0.397,-1.761 -0.738,-3.579 -1.079,-5.34 -0.341,-1.761 -0.739,-3.579 -1.08,-5.34 -0.397,-1.761 -0.794,-3.522 -1.192,-5.283 -0.398,-1.761 -0.852,-3.522 -1.25,-5.283 -0.454,-1.761 -0.909,-3.465 -1.363,-5.226 -0.455,-1.704 -0.909,-3.465 -1.421,-5.169 -0.454,-1.705 -0.965,-3.409 -1.477,-5.17 l -1.533,-5.112 c -0.568,-1.648 -1.079,-3.352 -1.648,-5.056 -0.568,-1.647 -1.136,-3.351 -1.704,-4.999 -0.568,-1.647 -1.136,-3.351 -1.761,-4.999 -0.625,-1.647 -1.193,-3.295 -1.818,-4.942 -0.625,-1.647 -1.306,-3.238 -1.931,-4.886 -0.682,-1.647 -1.306,-3.237 -1.988,-4.828 -0.682,-1.647 -1.364,-3.238 -2.045,-4.828 -0.682,-1.591 -1.42,-3.181 -2.102,-4.772 -0.739,-1.534 -1.477,-3.124 -2.215,-4.715 -0.739,-1.534 -1.477,-3.067 -2.273,-4.658 -0.738,-1.534 -1.533,-3.068 -2.272,-4.601 -0.795,-1.534 -1.647,-3.068 -2.443,-4.545 -0.795,-1.533 -1.647,-3.011 -2.442,-4.544 -0.852,-1.477 -1.705,-2.954 -2.5,-4.431 -0.909,-1.477 -1.761,-2.954 -2.613,-4.431 -0.909,-1.477 -1.761,-2.898 -2.67,-4.374 -0.909,-1.42 -1.818,-2.84 -2.726,-4.317 -0.909,-1.364 -1.875,-2.784 -2.784,-4.204 -0.966,-1.42 -1.932,-2.84 -2.84,-4.204 -0.966,-1.363 -1.989,-2.783 -2.954,-4.147 -0.966,-1.363 -1.989,-2.726 -2.954,-4.09 -1.022,-1.306 -2.045,-2.67 -3.068,-4.033 -1.022,-1.306 -2.101,-2.613 -3.124,-3.92 -0.511,-0.681 -1.022,-1.363 -1.591,-1.988 -0.511,-0.625 -1.022,-1.307 -1.59,-1.931 -0.511,-0.682 -1.08,-1.307 -1.591,-1.932 -0.568,-0.625 -1.079,-1.306 -1.647,-1.931 -0.512,-0.625 -1.079,-1.25 -1.647,-1.875 -0.511,-0.624 -1.08,-1.249 -1.648,-1.931 -0.568,-0.568 -1.079,-1.193 -1.647,-1.818 -0.568,-0.625 -1.136,-1.25 -1.704,-1.874 -0.569,-0.625 -1.136,-1.25 -1.704,-1.818 -0.569,-0.625 -1.137,-1.25 -1.705,-1.818 -0.568,-0.625 -1.193,-1.25 -1.761,-1.818 -0.568,-0.625 -1.136,-1.193 -1.761,-1.818 -0.568,-0.568 -1.136,-1.193 -1.761,-1.761 -0.568,-0.568 -1.193,-1.192 -1.761,-1.761 -0.624,-0.568 -1.193,-1.136 -1.817,-1.704 -0.569,-0.625 -1.194,-1.193 -1.762,-1.761 -0.625,-0.568 -1.249,-1.136 -1.874,-1.704 -0.568,-0.568 -1.193,-1.136 -1.818,-1.704 -0.625,-0.512 -1.249,-1.079 -1.874,-1.648 -0.625,-0.568 -1.193,-1.136 -1.875,-1.647 -0.625,-0.568 -1.25,-1.136 -1.875,-1.647 -0.624,-0.569 -1.249,-1.08 -1.874,-1.648 -0.625,-0.511 -1.25,-1.079 -1.932,-1.591 -0.625,-0.511 -1.25,-1.079 -1.931,-1.59 -0.625,-0.511 -1.307,-1.022 -1.931,-1.591 -0.625,-0.511 -1.307,-1.022 -1.932,-1.533 -0.682,-0.512 -1.307,-1.023 -1.988,-1.534 -0.682,-0.511 -1.307,-1.023 -1.989,-1.534 -0.681,-0.511 -1.306,-0.966 -1.987,-1.477 -0.683,-0.511 -1.364,-1.022 -2.046,-1.477 -0.624,-0.511 -1.306,-1.022 -1.988,-1.476 -0.682,-0.512 -1.363,-0.966 -2.045,-1.477 -0.682,-0.455 -1.363,-0.91 -2.045,-1.421 -0.738,-0.454 -1.42,-0.909 -2.102,-1.42 -0.682,-0.454 -1.363,-0.909 -2.102,-1.363 -0.681,-0.455 -1.363,-0.909 -2.102,-1.363 -0.681,-0.455 -1.363,-0.91 -2.101,-1.364 -0.682,-0.454 -1.421,-0.909 -2.102,-1.363 -0.738,-0.398 -1.42,-0.852 -2.159,-1.307 -0.738,-0.398 -1.42,-0.852 -2.158,-1.306 -0.682,-0.398 -1.42,-0.852 -2.159,-1.25 -0.739,-0.455 -1.477,-0.852 -2.158,-1.307 -0.739,-0.397 -1.478,-0.795 -2.216,-1.193 -0.739,-0.454 -1.477,-0.852 -2.216,-1.249 -0.738,-0.398 -1.476,-0.796 -2.215,-1.193 -0.738,-0.398 -1.477,-0.796 -2.215,-1.193 -0.796,-0.398 -1.534,-0.739 -2.273,-1.136 -0.738,-0.398 -1.477,-0.796 -2.272,-1.136 -0.738,-0.398 -1.477,-0.796 -2.272,-1.137 -0.738,-0.397 -1.534,-0.738 -2.272,-1.136 -0.796,-0.341 -1.534,-0.682 -2.329,-1.079 -0.739,-0.341 -1.534,-0.682 -2.273,-1.022 -0.795,-0.398 -1.59,-0.739 -2.329,-1.08 -0.795,-0.341 -1.59,-0.682 -2.329,-1.023 -0.795,-0.34 -1.59,-0.681 -2.386,-1.022 -0.795,-0.284 -1.59,-0.625 -2.385,-0.965 -0.739,-0.285 -1.534,-0.625 -2.33,-0.966 -0.852,-0.284 -1.59,-0.625 -2.442,-0.909 -0.795,-0.341 -1.591,-0.625 -2.386,-0.966 -0.796,-0.284 -1.59,-0.568 -2.386,-0.852 -0.852,-0.341 -1.647,-0.625 -2.443,-0.909 -0.852,-0.284 -1.647,-0.568 -2.442,-0.852 -0.852,-0.284 -1.648,-0.568 -2.5,-0.852 -0.795,-0.227 -1.59,-0.511 -2.442,-0.795 -0.853,-0.285 -1.648,-0.512 -2.5,-0.796 -0.795,-0.283 -1.647,-0.511 -2.5,-0.795 -0.794,-0.227 -1.646,-0.454 -2.499,-0.738 -0.795,-0.228 -1.647,-0.455 -2.499,-0.682 -0.852,-0.284 -1.705,-0.511 -2.5,-0.738 -0.852,-0.228 -1.704,-0.455 -2.556,-0.682 -0.852,-0.228 -1.704,-0.455 -2.556,-0.682 -0.852,-0.17 -1.704,-0.398 -2.557,-0.625 -0.852,-0.227 -1.761,-0.397 -2.613,-0.625 -0.852,-0.17 -1.704,-0.397 -2.556,-0.568 -0.909,-0.227 -1.761,-0.398 -2.613,-0.568 -0.909,-0.227 -1.761,-0.397 -2.613,-0.568 -0.909,-0.17 -1.761,-0.341 -2.613,-0.511 -0.909,-0.17 -1.818,-0.341 -2.67,-0.511 -0.909,-0.171 -1.761,-0.341 -2.67,-0.511 -0.852,-0.114 -1.761,-0.285 -2.613,-0.455 -0.909,-0.114 -1.818,-0.284 -2.726,-0.398 -0.853,-0.17 -1.762,-0.284 -2.67,-0.454 -0.91,-0.114 -1.818,-0.227 -2.67,-0.341 -0.91,-0.17 -1.818,-0.284 -2.727,-0.397 -0.909,-0.114 -1.818,-0.228 -2.727,-0.341 -0.909,-0.114 -1.818,-0.228 -2.727,-0.341 -0.909,-0.057 -1.817,-0.17 -2.726,-0.284 -0.909,-0.057 -1.818,-0.171 -2.784,-0.228 -0.908,-0.113 -1.818,-0.17 -2.726,-0.283 -0.966,-0.058 -1.875,-0.114 -2.784,-0.228 -0.966,-0.057 -1.875,-0.113 -2.784,-0.17 -0.965,-0.057 -1.874,-0.114 -2.84,-0.171 -0.909,-0.056 -1.875,-0.113 -2.783,-0.17 -0.966,-0.057 -1.875,-0.057 -2.841,-0.114 -0.909,-0.057 -1.874,-0.057 -2.84,-0.113 -0.909,0 -1.874,-0.057 -2.84,-0.057 -0.909,0 -1.875,-0.057 -2.841,-0.057 -0.965,0 -1.931,0 -2.84,-0.057 l -2.897,0 c -0.966,0.057 -1.874,0.057 -2.84,0.057 -0.966,0 -1.932,0.057 -2.897,0.057 -0.909,0 -1.875,0.057 -2.841,0.057 -0.909,0.056 -1.875,0.056 -2.783,0.113 -0.966,0 -1.932,0.057 -2.841,0.114 -0.965,0.057 -1.874,0.114 -2.84,0.114 -0.909,0.113 -1.874,0.17 -2.784,0.227 -0.908,0.057 -1.874,0.113 -2.783,0.17 -0.909,0.057 -1.874,0.17 -2.783,0.228 -0.909,0.056 -1.818,0.17 -2.784,0.227 -0.909,0.113 -1.818,0.17 -2.727,0.284 -0.908,0.114 -1.817,0.17 -2.726,0.284 -0.909,0.113 -1.818,0.227 -2.727,0.341 -0.909,0.113 -1.818,0.227 -2.726,0.341 -0.91,0.113 -1.818,0.227 -2.727,0.34 -0.909,0.114 -1.761,0.284 -2.67,0.398 -0.909,0.114 -1.818,0.284 -2.67,0.397 -0.909,0.171 -1.818,0.285 -2.67,0.455 -0.909,0.114 -1.818,0.284 -2.67,0.455 -0.909,0.113 -1.761,0.284 -2.67,0.454 -0.852,0.171 -1.761,0.341 -2.613,0.511 -0.909,0.171 -1.761,0.341 -2.613,0.512 -0.909,0.17 -1.761,0.397 -2.613,0.567 -0.909,0.171 -1.761,0.398 -2.613,0.568 -0.852,0.171 -1.704,0.398 -2.613,0.569 -0.852,0.227 -1.705,0.454 -2.557,0.625 -0.852,0.227 -1.704,0.454 -2.556,0.624 -0.852,0.228 -1.704,0.455 -2.556,0.682 -0.852,0.227 -1.704,0.454 -2.556,0.681 -0.796,0.228 -1.648,0.455 -2.5,0.682 -0.852,0.284 -1.647,0.512 -2.499,0.739 -0.852,0.227 -1.648,0.511 -2.5,0.738 -0.852,0.284 -1.647,0.511 -2.499,0.796 -0.796,0.227 -1.648,0.511 -2.443,0.795 -0.852,0.284 -1.647,0.511 -2.5,0.795 -0.794,0.284 -1.647,0.568 -2.442,0.852 -0.795,0.284 -1.647,0.568 -2.443,0.852 -0.795,0.284 -1.59,0.568 -2.442,0.853 -0.796,0.283 -1.591,0.625 -2.386,0.908 -0.795,0.284 -1.591,0.625 -2.386,0.909 -0.796,0.341 -1.59,0.625 -2.386,0.966 -0.795,0.284 -1.591,0.625 -2.386,0.966 -0.795,0.284 -1.59,0.625 -2.329,0.965 -0.795,0.341 -1.591,0.682 -2.385,0.966 -0.739,0.341 -1.535,0.682 -2.33,1.023 -0.738,0.397 -1.534,0.738 -2.329,1.079 -0.738,0.341 -1.533,0.681 -2.272,1.079 -0.796,0.341 -1.534,0.682 -2.329,1.079 -0.739,0.341 -1.477,0.682 -2.272,1.08 -0.739,0.341 -1.477,0.738 -2.273,1.136 -0.738,0.341 -1.477,0.739 -2.215,1.136 -0.738,0.398 -1.534,0.739 -2.272,1.136 -0.739,0.398 -1.477,0.796 -2.216,1.193 -0.738,0.398 -1.477,0.796 -2.215,1.193 -0.738,0.398 -1.477,0.795 -2.159,1.25 -0.738,0.397 -1.477,0.795 -2.215,1.193 -0.739,0.454 -1.421,0.852 -2.159,1.306 -0.738,0.398 -1.42,0.853 -2.159,1.25 -0.738,0.455 -1.419,0.852 -2.158,1.307 -0.682,0.454 -1.42,0.852 -2.102,1.306 -0.739,0.454 -1.42,0.909 -2.158,1.364 -0.682,0.454 -1.364,0.908 -2.103,1.306 -0.681,0.454 -1.363,0.966 -2.044,1.42 -0.682,0.455 -1.42,0.909 -2.103,1.363 -0.681,0.455 -1.363,0.966 -2.044,1.421 -0.682,0.454 -1.364,0.965 -2.045,1.42 -0.682,0.511 -1.364,0.966 -2.045,1.477 -0.682,0.454 -1.307,0.966 -1.989,1.42 -0.681,0.511 -1.363,1.022 -2.044,1.477 -0.625,0.511 -1.307,1.022 -1.989,1.533 -0.625,0.512 -1.306,1.023 -1.931,1.478 -0.682,0.568 -1.307,1.079 -1.989,1.533 -0.624,0.569 -1.306,1.08 -1.931,1.591 -0.625,0.511 -1.306,1.022 -1.931,1.59 -0.625,0.512 -1.25,1.023 -1.932,1.534 -0.625,0.568 -1.25,1.08 -1.874,1.648 -0.625,0.511 -1.25,1.079 -1.932,1.59 -0.568,0.568 -1.193,1.079 -1.818,1.648 -0.624,0.568 -1.249,1.079 -1.874,1.647 -0.625,0.568 -1.25,1.136 -1.875,1.704 -0.568,0.568 -1.193,1.136 -1.818,1.647 -0.567,0.569 -1.192,1.137 -1.817,1.705 -0.568,0.624 -1.193,1.193 -1.761,1.761 -0.625,0.568 -1.193,1.136 -1.818,1.704 -0.568,0.625 -1.136,1.193 -1.761,1.761 -0.568,0.625 -1.136,1.193 -1.761,1.761 -0.568,0.625 -1.136,1.193 -1.704,1.818 -0.568,0.568 -1.136,1.192 -1.761,1.817 -0.568,0.568 -1.137,1.193 -1.704,1.818 -0.568,0.625 -1.08,1.193 -1.648,1.818 -0.568,0.625 -1.136,1.25 -1.704,1.875 -0.568,0.625 -1.079,1.193 -1.647,1.874 -0.568,0.625 -1.08,1.25 -1.648,1.875 -0.568,0.625 -1.079,1.25 -1.647,1.874 -0.512,0.625 -1.079,1.25 -1.591,1.932 -0.568,0.625 -1.079,1.249 -1.59,1.932 -0.568,0.624 -1.08,1.249 -1.591,1.931 -1.079,1.306 -2.102,2.613 -3.124,3.919 -1.023,1.364 -2.045,2.67 -3.068,3.977 -1.022,1.363 -1.988,2.726 -3.01,4.09 -0.966,1.363 -1.932,2.727 -2.897,4.09 -0.966,1.363 -1.932,2.784 -2.897,4.147 -0.91,1.42 -1.875,2.84 -2.784,4.203 -0.909,1.477 -1.818,2.897 -2.727,4.318 -0.909,1.42 -1.761,2.897 -2.67,4.317 -0.852,1.477 -1.761,2.897 -2.613,4.374 -0.852,1.477 -1.704,2.954 -2.556,4.431 -0.795,1.534 -1.648,3.011 -2.443,4.488 -0.795,1.533 -1.647,3.01 -2.442,4.544 -0.739,1.534 -1.534,3.068 -2.329,4.601 -0.739,1.534 -1.534,3.068 -2.273,4.602 -0.738,1.59 -1.477,3.124 -2.215,4.715 -0.682,1.59 -1.42,3.124 -2.102,4.714 -0.682,1.591 -1.364,3.182 -2.045,4.772 -0.682,1.647 -1.363,3.238 -2.045,4.829 -0.625,1.647 -1.25,3.238 -1.931,4.885 -0.625,1.647 -1.194,3.295 -1.818,4.942 -0.625,1.648 -1.193,3.295 -1.818,4.943 -0.568,1.647 -1.136,3.294 -1.704,4.998 -0.568,1.648 -1.08,3.352 -1.648,5.056 -0.511,1.647 -1.079,3.352 -1.59,5.056 -0.512,1.704 -0.966,3.408 -1.477,5.112 -0.512,1.761 -0.966,3.466 -1.42,5.17 -0.455,1.761 -0.909,3.465 -1.364,5.226 -0.454,1.761 -0.852,3.465 -1.306,5.226 -0.398,1.761 -0.796,3.522 -1.193,5.283 -0.398,1.761 -0.796,3.522 -1.136,5.283 -0.398,1.818 -0.739,3.579 -1.079,5.397 -0.341,1.76 -0.682,3.578 -1.023,5.34 -0.284,1.817 -0.568,3.635 -0.909,5.453 -0.284,1.818 -0.511,3.635 -0.796,5.453 -0.283,1.818 -0.567,3.636 -0.794,5.453 -0.228,1.875 -0.455,3.693 -0.682,5.511 -0.228,1.874 -0.398,3.692 -0.625,5.567 -0.17,1.817 -0.341,3.692 -0.511,5.567 -0.171,1.874 -0.341,3.749 -0.455,5.567 -0.17,1.931 -0.284,3.806 -0.397,5.68 -0.114,1.875 -0.228,3.75 -0.285,5.624 -0.113,1.875 -0.17,3.806 -0.227,5.681 -0.057,1.931 -0.113,3.806 -0.17,5.737 0,1.875 -0.057,3.806 -0.057,5.681 l 0,1.477 0,0.681 0,0.455 0,0.511 0,0.796 0,0.397 0,0.511 0,0.569 0,0.568 0,0.625 0,0.681 0,0.738 0,0.796 0,0.795 0,0.852 0,0.909 0,0.966 0,0.966 0,1.022 0,1.079 0,1.08 0,1.193 0,1.193 0,1.192 0,1.25 0,1.307 0,1.363 0,1.364 0,1.42 0,1.42 0,1.476 0,1.535 0,1.533 0,1.591 0,1.591 0,1.646 0,1.648 0,1.704 0,1.761 0,1.762 0,1.76 0,1.818 0,1.875 0,1.874 0,1.875 0,1.931 0,1.931 0,1.989 0,1.988 0,2.045 0,2.045 0,2.045 0,4.204 0,4.26 0,4.374 0,4.431 0,4.488 0,4.545 0,4.658 0,4.657 0,4.716 0,4.771 0,4.829 0,4.829 0,4.885 0,4.942 0,9.884 0,19.882 0,9.885 0,9.884 0,4.942 0,4.828 0,4.886 0,4.772 0,4.771 0,4.715 0,4.658 0,4.602 0,4.601 0,4.487 0,4.375 0,4.374 0,4.26 0,4.204 0,2.045 0,1.988 0,2.045 0,1.988 0,1.989 0,1.931 0,1.875 0,1.931 0,1.818 0,1.874 0,1.818 0,1.761 0,1.761 0,1.704 0,1.704 0,1.648 0,1.647 C 0,-32.437 0,-31.925 0,-31.357 l 0,1.534 0,1.533 0,1.534 0,1.42 0,1.477 0,1.363 0,1.364 0,1.363 0,1.25 0,1.25 0,1.193 0,1.193 0,1.136 0,1.079 0,1.08 0,1.022 0,0.965 0,0.91 0,0.908 0,0.852 0,0.796 0,0.738 0,0.682 0,0.682 0,0.624 0,0.569 0,0.511 0,0.511 0,0.398 0,0.738 L 0,0 Z" /></g><g
                 id="g5156"
                 transform="translate(282.3311,1154.8828)"><path
                   id="path5158"
                   style="fill:#ffffff;fill-opacity:1;fill-rule:nonzero;stroke:none"
                   d="m 0,0 c 0.057,0.17 0.114,0.284 0.17,0.455 l 0.398,0 0.455,0 0.511,0 0.625,0 0.738,0 0.455,0 0.397,0 0.455,0 0.511,0 0.511,0 0.512,0 0.568,0 0.568,0 0.625,0 0.624,0 0.625,0 0.682,0 0.682,0 0.681,0 0.739,0 0.738,0 0.795,0 1.591,0 1.647,0 1.705,0 1.817,0 1.875,0 1.931,0 1.989,0 2.045,0 2.102,0 2.158,0 2.216,0 2.215,0 2.329,0 2.329,0 2.329,0 2.443,0 2.386,0 2.499,0 2.443,0 2.556,0 2.5,0 5.112,0 5.169,0 5.17,0 5.169,0 5.113,0 5.112,0 2.557,0 2.499,0 2.5,0 2.442,0 2.443,0 2.386,0 2.386,0 2.329,0 2.272,0 2.215,0 2.216,0 2.158,0 2.102,0 2.045,0 1.988,0 1.932,0 1.875,0 1.817,0 1.705,0 1.704,0 1.59,0 0.739,0 0.738,0 0.739,0 0.681,0 0.739,0 0.625,0 0.681,0 0.569,0 0.624,0 0.568,0 0.569,0 0.511,0 0.511,0 0.511,0 0.455,0 0.454,0 0.398,0 0.738,0 0.625,0 0.568,0 0.398,0 0.454,0 c 0.057,-0.114 0.114,-0.228 0.228,-0.341 0,-0.171 0.056,-0.284 0.056,-0.455 0,-0.17 0.057,-0.284 0.057,-0.398 0.057,-0.17 0.057,-0.341 0.114,-0.511 0,-0.17 0.057,-0.341 0.057,-0.568 0.056,-0.17 0.056,-0.397 0.113,-0.625 0.057,-0.227 0.057,-0.454 0.114,-0.682 0.057,-0.283 0.057,-0.511 0.113,-0.795 0.057,-0.227 0.114,-0.511 0.171,-0.795 0,-0.341 0.057,-0.625 0.114,-0.909 0.056,-0.341 0.113,-0.682 0.17,-0.965 0.057,-0.341 0.113,-0.682 0.17,-1.023 0.057,-0.398 0.114,-0.739 0.171,-1.136 0.056,-0.341 0.113,-0.739 0.17,-1.136 0.057,-0.398 0.171,-0.796 0.227,-1.193 0.057,-0.398 0.114,-0.796 0.171,-1.25 0.113,-0.398 0.17,-0.852 0.227,-1.306 0.057,-0.455 0.17,-0.909 0.227,-1.307 0.057,-0.511 0.171,-0.966 0.228,-1.42 0.056,-0.512 0.17,-0.966 0.227,-1.42 0.113,-0.512 0.17,-1.023 0.227,-1.534 0.113,-0.511 0.17,-0.966 0.284,-1.534 0.057,-0.511 0.17,-1.023 0.227,-1.534 0.114,-0.511 0.17,-1.079 0.284,-1.59 0.057,-0.569 0.171,-1.08 0.284,-1.648 0.057,-0.567 0.171,-1.079 0.227,-1.647 0.114,-0.568 0.228,-1.136 0.284,-1.704 0.114,-0.568 0.228,-1.136 0.284,-1.704 0.114,-0.625 0.171,-1.193 0.285,-1.762 0.113,-0.567 0.227,-1.192 0.283,-1.76 0.114,-0.625 0.228,-1.193 0.285,-1.818 0.227,-1.193 0.397,-2.386 0.624,-3.636 0.228,-1.193 0.398,-2.442 0.569,-3.692 0.227,-1.25 0.454,-2.5 0.624,-3.749 0.228,-1.25 0.455,-2.5 0.625,-3.75 0.398,-2.556 0.852,-5.055 1.25,-7.555 0.227,-1.306 0.398,-2.556 0.625,-3.806 0.17,-1.193 0.398,-2.443 0.568,-3.692 0.227,-1.25 0.398,-2.443 0.625,-3.636 0.113,-0.625 0.17,-1.25 0.284,-1.818 0.113,-0.625 0.17,-1.193 0.284,-1.818 0.113,-0.567 0.227,-1.136 0.284,-1.76 0.113,-0.569 0.227,-1.136 0.284,-1.704 0.113,-0.569 0.227,-1.137 0.284,-1.762 0.114,-0.511 0.17,-1.079 0.284,-1.647 0.114,-0.568 0.17,-1.136 0.284,-1.648 0.057,-0.567 0.17,-1.079 0.227,-1.647 0.114,-0.511 0.228,-1.022 0.284,-1.59 0.114,-0.512 0.171,-1.023 0.284,-1.534 0.057,-0.511 0.114,-1.022 0.227,-1.534 0.057,-0.454 0.171,-0.965 0.228,-1.42 0.057,-0.511 0.17,-0.966 0.227,-1.477 0.057,-0.454 0.17,-0.909 0.227,-1.363 0.057,-0.455 0.17,-0.909 0.227,-1.307 0.057,-0.454 0.171,-0.909 0.228,-1.306 0.057,-0.398 0.113,-0.796 0.17,-1.25 0.057,-0.398 0.114,-0.796 0.227,-1.193 0.057,-0.341 0.114,-0.738 0.171,-1.079 0.056,-0.398 0.113,-0.739 0.17,-1.08 0.057,-0.341 0.114,-0.681 0.171,-1.022 0.056,-0.284 0.113,-0.625 0.17,-0.966 0,-0.284 0.057,-0.568 0.114,-0.852 0.056,-0.284 0.113,-0.568 0.17,-0.795 0,-0.284 0.057,-0.512 0.113,-0.795 0,-0.228 0.057,-0.455 0.114,-0.682 0,-0.17 0.057,-0.398 0.057,-0.568 0.057,-0.284 0.114,-0.512 0.114,-0.795 0.057,-0.114 0.057,-0.285 0.113,-0.398 0,-0.171 0.057,-0.341 0.057,-0.512 0.057,-0.113 0.057,-0.284 0.057,-0.397 0.057,-0.17 0.057,-0.341 0.113,-0.511 0.057,-0.171 0.057,-0.341 0.114,-0.569 0.114,-0.227 0.17,-0.454 0.227,-0.681 0.057,-0.114 0.114,-0.227 0.171,-0.341 0.057,-0.17 0.113,-0.284 0.17,-0.398 0.114,-0.17 0.17,-0.284 0.227,-0.397 0.114,-0.171 0.171,-0.284 0.284,-0.398 0.057,-0.17 0.171,-0.284 0.284,-0.397 0.114,-0.114 0.228,-0.228 0.341,-0.398 0.114,-0.114 0.227,-0.227 0.341,-0.341 0.171,-0.113 0.284,-0.171 0.454,-0.284 0.114,-0.114 0.285,-0.227 0.455,-0.284 0.17,-0.114 0.341,-0.17 0.511,-0.284 0.284,-0.057 0.568,-0.171 0.852,-0.227 0.228,-0.057 0.455,-0.114 0.682,-0.114 0.227,0 0.454,-0.057 0.682,-0.057 l 0.454,0 0.795,0 c 0.228,0 0.455,0.057 0.739,0.057 0.17,0 0.398,0.057 0.625,0.057 0.17,0.057 0.397,0.057 0.568,0.113 0.17,0.058 0.341,0.114 0.568,0.114 0.113,0.057 0.284,0.114 0.454,0.171 0.114,0.056 0.284,0.113 0.398,0.17 0.113,0.114 0.284,0.17 0.398,0.227 0.227,0.17 0.454,0.341 0.624,0.511 0.171,0.171 0.398,0.398 0.569,0.569 0.056,0.113 0.113,0.227 0.227,0.34 0.056,0.171 0.113,0.284 0.17,0.398 0.114,0.114 0.171,0.227 0.227,0.397 0.057,0.114 0.171,0.228 0.228,0.398 0.056,0.114 0.113,0.284 0.17,0.398 0.114,0.17 0.17,0.341 0.227,0.454 0.057,0.171 0.114,0.341 0.228,0.512 0.113,0.284 0.284,0.567 0.397,0.852 0.057,0.113 0.17,0.284 0.227,0.397 0.114,0.171 0.171,0.341 0.228,0.512 0.113,0.17 0.227,0.341 0.34,0.568 0.171,0.17 0.284,0.397 0.398,0.625 0.114,0.113 0.171,0.227 0.227,0.397 0.114,0.114 0.171,0.227 0.284,0.398 0.057,0.113 0.171,0.227 0.227,0.398 0.114,0.17 0.171,0.283 0.285,0.454 0.113,0.113 0.227,0.284 0.284,0.454 0.113,0.171 0.227,0.341 0.34,0.455 0.114,0.17 0.228,0.341 0.341,0.511 0.114,0.17 0.227,0.341 0.341,0.568 0.114,0.17 0.227,0.341 0.341,0.511 0.114,0.228 0.227,0.398 0.398,0.569 0.113,0.227 0.227,0.397 0.397,0.625 0.114,0.17 0.284,0.397 0.398,0.567 0.113,0.227 0.284,0.455 0.397,0.682 0.171,0.17 0.341,0.398 0.455,0.625 0.17,0.227 0.341,0.454 0.454,0.682 0.171,0.227 0.341,0.454 0.512,0.681 0.17,0.227 0.341,0.455 0.511,0.682 0.17,0.284 0.341,0.511 0.511,0.738 0.171,0.228 0.341,0.511 0.512,0.739 0.17,0.227 0.34,0.511 0.568,0.738 0.17,0.284 0.34,0.569 0.567,0.796 0.171,0.284 0.341,0.511 0.569,0.795 0.17,0.284 0.397,0.511 0.568,0.795 0.227,0.284 0.397,0.568 0.624,0.852 0.228,0.284 0.398,0.512 0.625,0.853 0.228,0.283 0.455,0.511 0.625,0.852 0.228,0.283 0.455,0.568 0.682,0.852 0.227,0.283 0.454,0.568 0.682,0.852 0.227,0.341 0.454,0.625 0.681,0.908 0.227,0.341 0.512,0.625 0.739,0.91 0.227,0.34 0.454,0.624 0.738,0.908 0.228,0.341 0.455,0.625 0.682,0.966 0.284,0.284 0.511,0.625 0.795,0.966 0.228,0.284 0.511,0.624 0.739,0.965 0.284,0.284 0.568,0.625 0.795,0.966 0.284,0.284 0.568,0.625 0.852,0.966 0.511,0.682 1.079,1.307 1.647,1.988 0.569,0.682 1.137,1.364 1.705,2.045 0.568,0.682 1.193,1.363 1.761,2.102 0.625,0.682 1.249,1.363 1.874,2.102 0.625,0.681 1.25,1.42 1.932,2.158 0.624,0.682 1.306,1.42 1.931,2.159 0.682,0.738 1.363,1.477 2.045,2.215 0.682,0.739 1.42,1.478 2.102,2.216 0.682,0.739 1.42,1.477 2.159,2.215 0.738,0.739 1.477,1.534 2.215,2.273 0.738,0.738 1.477,1.533 2.272,2.272 0.739,0.738 1.534,1.534 2.329,2.272 0.796,0.795 1.591,1.534 2.386,2.329 0.796,0.738 1.648,1.477 2.443,2.273 0.852,0.738 1.704,1.533 2.499,2.272 0.909,0.795 1.761,1.533 2.613,2.329 0.852,0.738 1.761,1.533 2.613,2.272 0.909,0.795 1.761,1.534 2.67,2.272 0.909,0.796 1.875,1.534 2.784,2.329 0.909,0.739 1.818,1.477 2.783,2.273 0.966,0.738 1.875,1.477 2.841,2.215 0.965,0.738 1.988,1.477 2.954,2.215 0.965,0.739 1.931,1.477 2.953,2.216 1.023,0.738 1.989,1.477 3.011,2.216 1.023,0.681 2.045,1.419 3.068,2.158 1.079,0.682 2.102,1.42 3.181,2.102 1.022,0.738 2.102,1.42 3.181,2.102 1.08,0.681 2.159,1.363 3.238,2.045 1.136,0.681 2.216,1.363 3.295,2.045 1.136,0.681 2.272,1.306 3.351,1.988 1.136,0.625 2.273,1.249 3.409,1.931 1.193,0.625 2.329,1.25 3.465,1.875 1.193,0.625 2.386,1.193 3.522,1.817 1.193,0.625 2.386,1.194 3.579,1.762 0.625,0.284 1.193,0.625 1.817,0.908 0.625,0.285 1.193,0.569 1.818,0.852 0.625,0.285 1.193,0.569 1.818,0.796 0.625,0.284 1.25,0.568 1.875,0.852 0.624,0.284 1.193,0.511 1.818,0.795 0.624,0.284 1.249,0.568 1.874,0.796 0.625,0.283 1.25,0.511 1.875,0.795 0.625,0.227 1.249,0.511 1.931,0.738 0.625,0.227 1.25,0.512 1.875,0.739 0.624,0.227 1.306,0.511 1.931,0.738 0.625,0.228 1.307,0.455 1.932,0.682 0.681,0.227 1.306,0.455 1.931,0.682 0.682,0.227 1.307,0.454 1.988,0.681 0.625,0.227 1.307,0.455 1.932,0.682 0.681,0.17 1.363,0.397 2.045,0.625 0.625,0.17 1.306,0.397 1.988,0.568 0.625,0.227 1.306,0.397 1.988,0.625 0.682,0.17 1.363,0.341 2.045,0.568 0.625,0.17 1.307,0.341 1.988,0.511 0.682,0.17 1.364,0.398 2.045,0.568 0.682,0.171 1.42,0.284 2.102,0.512 0.682,0.113 1.364,0.283 2.045,0.454 0.682,0.17 1.42,0.284 2.102,0.454 0.682,0.171 1.363,0.284 2.102,0.455 0.681,0.114 1.363,0.284 2.102,0.397 0.681,0.114 1.42,0.285 2.101,0.398 0.682,0.114 1.421,0.227 2.102,0.341 0.739,0.113 1.477,0.227 2.159,0.341 0.738,0.113 1.42,0.227 2.158,0.341 0.739,0.113 1.477,0.17 2.159,0.283 0.739,0.114 1.477,0.171 2.215,0.285 0.682,0.056 1.421,0.17 2.159,0.227 0.739,0.057 1.477,0.17 2.216,0.227 0.738,0.057 1.476,0.113 2.215,0.171 0.738,0.056 1.477,0.113 2.216,0.17 0.738,0.057 1.477,0.114 2.272,0.17 0.738,0 1.477,0.057 2.215,0.057 0.739,0.057 1.534,0.114 2.272,0.114 0.739,0 1.534,0 2.273,0.056 l 2.272,0 2.329,0 c 0.739,0 1.534,0 2.272,-0.056 0.796,0 1.534,0 2.329,-0.057 0.796,0 1.534,-0.057 2.33,-0.057 0.795,-0.057 1.59,-0.113 2.329,-0.17 0.795,-0.057 1.59,-0.057 2.385,-0.114 0.796,-0.057 1.591,-0.113 2.329,-0.227 0.796,-0.057 1.591,-0.114 2.386,-0.227 0.796,-0.057 1.591,-0.114 2.386,-0.228 0.795,-0.113 1.591,-0.17 2.386,-0.283 0.795,-0.114 1.647,-0.228 2.443,-0.285 0.795,-0.17 1.59,-0.284 2.385,-0.397 0.852,-0.114 1.648,-0.228 2.443,-0.341 0.852,-0.17 1.648,-0.284 2.443,-0.454 0.852,-0.114 1.647,-0.285 2.442,-0.455 0.852,-0.17 1.648,-0.284 2.5,-0.454 0.795,-0.171 1.647,-0.398 2.443,-0.512 0.852,-0.227 1.647,-0.397 2.499,-0.568 1.079,-0.284 2.216,-0.511 3.352,-0.795 1.079,-0.284 2.158,-0.568 3.238,-0.795 1.079,-0.284 2.158,-0.568 3.181,-0.853 1.079,-0.283 2.101,-0.568 3.181,-0.852 1.022,-0.283 2.045,-0.568 3.124,-0.852 1.023,-0.341 2.045,-0.624 3.068,-0.965 1.022,-0.284 2.045,-0.625 3.067,-0.909 0.966,-0.341 1.989,-0.682 3.011,-1.023 l 3.067,-1.022 c 1.023,-0.398 1.989,-0.738 3.011,-1.08 1.023,-0.397 2.046,-0.795 3.068,-1.193 1.022,-0.397 2.045,-0.795 3.067,-1.193 1.023,-0.397 2.045,-0.795 3.125,-1.249 1.022,-0.455 2.045,-0.852 3.124,-1.307 0.511,-0.227 1.022,-0.454 1.591,-0.681 0.511,-0.227 1.079,-0.512 1.59,-0.739 0.511,-0.227 1.08,-0.454 1.591,-0.682 0.568,-0.283 1.079,-0.511 1.647,-0.738 0.568,-0.284 1.079,-0.511 1.647,-0.795 0.569,-0.227 1.08,-0.512 1.648,-0.739 0.568,-0.284 1.136,-0.568 1.704,-0.795 0.568,-0.284 1.136,-0.568 1.704,-0.852 0.568,-0.284 1.136,-0.568 1.705,-0.852 0.567,-0.284 1.136,-0.568 1.704,-0.852 0.625,-0.284 1.193,-0.569 1.76,-0.852 0.625,-0.284 1.194,-0.625 1.818,-0.909 0.569,-0.284 1.193,-0.625 1.818,-0.909 0.569,-0.341 1.193,-0.625 1.818,-0.966 0.397,-0.227 0.795,-0.397 1.193,-0.625 0,-0.113 0.057,-0.284 0.057,-0.397 l 0,-1.25 0,-2.443 0,-2.499 0,-2.5 0,-2.613 0,-2.613 0,-2.613 0,-2.67 0,-2.67 0,-2.727 0,-2.726 0,-2.784 0,-2.783 0,-5.681 0,-5.68 0,-5.795 0,-5.794 0,-5.851 0,-11.759 0,-5.851 0,-5.794 0,-5.851 0,-5.738 0,-5.68 0,-2.784 0,-2.84 0,-2.783 0,-2.727 0,-2.727 0,-2.727 0,-2.67 0,-2.612 0,-2.614 0,-2.613 0,-2.556 0,-2.5 0,-2.442 0,-2.443 0,-2.386 0,-2.329 0,-2.329 0,-2.272 0,-2.158 0,-2.159 0,-2.102 0,-2.102 0,-1.988 0,-1.932 0,-1.874 0,-1.818 0,-1.761 0,-1.761 0,-1.59 0,-1.591 0,-1.534 0,-1.42 0,-1.364 0,-1.306 0,-1.193 0,-1.136 0,-0.568 0,-0.511 0,-0.512 0,-0.511 0,-0.454 0,-0.455 0,-0.397 0,-0.795 0,-0.683 0,-0.624 0,-0.511 0,-0.682 c -0.057,-0.17 -0.114,-0.284 -0.171,-0.454 -0.113,0.113 -0.227,0.227 -0.341,0.34 -0.113,0.114 -0.283,0.227 -0.397,0.341 -0.171,0.114 -0.284,0.284 -0.455,0.398 -0.227,0.17 -0.397,0.34 -0.568,0.511 -0.113,0.114 -0.227,0.227 -0.34,0.284 -0.114,0.114 -0.227,0.227 -0.398,0.341 -0.114,0.114 -0.227,0.227 -0.341,0.341 -0.171,0.113 -0.284,0.227 -0.454,0.34 -0.114,0.114 -0.284,0.228 -0.398,0.341 -0.171,0.114 -0.341,0.284 -0.454,0.398 -0.171,0.114 -0.341,0.227 -0.512,0.398 -0.17,0.113 -0.34,0.284 -0.511,0.397 -0.17,0.171 -0.398,0.284 -0.568,0.455 -0.171,0.114 -0.341,0.284 -0.568,0.397 -0.17,0.171 -0.398,0.341 -0.568,0.512 -0.227,0.113 -0.455,0.284 -0.625,0.454 -0.227,0.17 -0.455,0.341 -0.682,0.511 -0.227,0.171 -0.454,0.341 -0.681,0.512 -0.228,0.17 -0.455,0.34 -0.682,0.511 -0.284,0.17 -0.512,0.341 -0.739,0.511 -0.284,0.17 -0.511,0.398 -0.795,0.568 -0.284,0.171 -0.511,0.341 -0.795,0.568 -0.284,0.171 -0.568,0.341 -0.795,0.569 -0.285,0.17 -0.569,0.397 -0.852,0.567 -0.341,0.171 -0.625,0.398 -0.91,0.568 -0.283,0.228 -0.624,0.398 -0.908,0.625 -0.284,0.227 -0.625,0.398 -0.909,0.625 -0.341,0.227 -0.682,0.398 -0.966,0.625 -0.341,0.227 -0.681,0.398 -1.022,0.625 -0.341,0.227 -0.682,0.454 -1.023,0.625 -0.341,0.227 -0.682,0.454 -1.023,0.681 -0.397,0.228 -0.738,0.455 -1.079,0.682 -0.397,0.228 -0.738,0.455 -1.136,0.682 -0.397,0.227 -0.738,0.398 -1.136,0.625 -0.398,0.284 -0.795,0.454 -1.193,0.681 -0.398,0.285 -0.795,0.512 -1.193,0.739 -0.397,0.227 -0.795,0.454 -1.193,0.682 -0.454,0.227 -0.852,0.454 -1.306,0.681 -0.398,0.227 -0.853,0.512 -1.25,0.739 -0.455,0.227 -0.909,0.454 -1.363,0.681 -0.398,0.285 -0.852,0.512 -1.307,0.739 -0.454,0.227 -0.909,0.511 -1.42,0.738 -0.454,0.227 -0.909,0.455 -1.364,0.739 -0.511,0.227 -0.965,0.454 -1.477,0.738 -0.454,0.227 -0.965,0.455 -1.476,0.682 -0.511,0.284 -0.966,0.511 -1.477,0.738 -0.511,0.285 -1.023,0.512 -1.534,0.739 -0.511,0.284 -1.022,0.511 -1.591,0.738 -0.511,0.285 -1.022,0.512 -1.59,0.739 -0.511,0.284 -1.08,0.511 -1.591,0.738 -0.568,0.284 -1.136,0.512 -1.647,0.739 -0.568,0.284 -1.136,0.511 -1.704,0.795 -0.568,0.227 -1.137,0.455 -1.705,0.738 -0.625,0.228 -1.192,0.455 -1.761,0.739 -0.624,0.227 -1.193,0.454 -1.817,0.738 -0.569,0.228 -1.194,0.455 -1.761,0.739 -0.625,0.227 -1.25,0.454 -1.875,0.739 -0.625,0.227 -1.25,0.454 -1.874,0.681 -0.625,0.284 -1.307,0.511 -1.932,0.738 -0.625,0.228 -1.307,0.512 -1.931,0.739 -0.625,0.227 -1.307,0.455 -1.989,0.739 -0.625,0.227 -1.306,0.454 -1.988,0.681 -0.681,0.284 -1.363,0.511 -2.045,0.739 -0.681,0.227 -1.363,0.454 -2.045,0.682 -0.738,0.227 -1.42,0.511 -2.102,0.738 -0.738,0.227 -1.477,0.454 -2.158,0.681 -0.739,0.228 -1.477,0.455 -2.159,0.682 -0.738,0.228 -1.477,0.455 -2.215,0.682 -0.739,0.227 -1.477,0.454 -2.216,0.682 -0.795,0.227 -1.533,0.454 -2.272,0.682 -0.796,0.227 -1.534,0.454 -2.329,0.624 -0.795,0.228 -1.534,0.455 -2.329,0.682 -0.795,0.227 -1.591,0.398 -2.386,0.625 -0.796,0.227 -1.59,0.454 -2.386,0.625 -0.795,0.227 -1.647,0.454 -2.443,0.625 -0.795,0.227 -1.647,0.454 -2.442,0.624 -0.852,0.228 -1.704,0.398 -2.5,0.625 -0.852,0.171 -1.704,0.341 -2.499,0.568 -0.852,0.17 -1.648,0.341 -2.5,0.511 -0.795,0.171 -1.647,0.341 -2.443,0.512 -0.794,0.17 -1.647,0.341 -2.442,0.454 -0.795,0.171 -1.647,0.341 -2.443,0.455 -0.795,0.17 -1.59,0.284 -2.386,0.397 -0.795,0.171 -1.59,0.284 -2.385,0.398 -0.796,0.113 -1.648,0.227 -2.443,0.341 -0.738,0.113 -1.534,0.227 -2.329,0.341 -0.795,0.056 -1.591,0.17 -2.386,0.283 -0.795,0.058 -1.534,0.171 -2.329,0.228 -0.796,0.057 -1.534,0.17 -2.329,0.227 -0.796,0.057 -1.534,0.114 -2.329,0.17 -0.739,0.114 -1.534,0.114 -2.272,0.171 -0.796,0.057 -1.534,0.114 -2.329,0.17 -0.739,0 -1.477,0.057 -2.273,0.114 -0.738,0 -1.477,0 -2.272,0.057 -0.738,0 -1.477,0.057 -2.215,0.057 l -2.216,0 -2.215,0 c -0.739,0 -1.477,0 -2.216,-0.057 -0.738,0 -1.477,0 -2.158,-0.057 -0.739,0 -1.477,-0.057 -2.216,-0.057 -0.738,-0.057 -1.42,-0.057 -2.158,-0.113 -0.682,-0.057 -1.421,-0.114 -2.159,-0.171 -0.682,-0.056 -1.42,-0.114 -2.102,-0.17 -0.738,-0.057 -1.42,-0.114 -2.102,-0.171 -0.738,-0.057 -1.42,-0.113 -2.101,-0.227 -0.739,-0.057 -1.421,-0.171 -2.102,-0.227 -0.682,-0.114 -1.364,-0.171 -2.102,-0.284 -0.682,-0.057 -1.364,-0.171 -2.045,-0.284 -0.682,-0.114 -1.364,-0.17 -2.045,-0.284 -0.682,-0.114 -1.364,-0.227 -2.045,-0.341 -0.625,-0.114 -1.307,-0.227 -1.988,-0.398 -0.682,-0.113 -1.364,-0.227 -1.989,-0.34 -0.681,-0.171 -1.363,-0.285 -1.988,-0.455 -0.682,-0.114 -1.363,-0.227 -1.988,-0.398 -0.682,-0.17 -1.307,-0.284 -1.988,-0.454 -0.625,-0.17 -1.25,-0.341 -1.932,-0.455 -0.625,-0.17 -1.249,-0.34 -1.931,-0.511 -0.625,-0.17 -1.25,-0.341 -1.932,-0.511 -0.624,-0.17 -1.249,-0.341 -1.874,-0.511 -0.625,-0.227 -1.25,-0.398 -1.875,-0.568 -0.625,-0.171 -1.249,-0.398 -1.874,-0.568 -0.625,-0.228 -1.25,-0.398 -1.875,-0.625 -0.625,-0.171 -1.25,-0.398 -1.818,-0.568 -0.625,-0.227 -1.25,-0.455 -1.817,-0.625 -0.625,-0.227 -1.25,-0.454 -1.875,-0.682 -0.568,-0.227 -1.193,-0.454 -1.761,-0.682 -0.625,-0.227 -1.193,-0.454 -1.818,-0.681 -0.568,-0.227 -1.136,-0.455 -1.761,-0.682 -0.568,-0.227 -1.193,-0.511 -1.761,-0.738 -0.568,-0.228 -1.136,-0.511 -1.704,-0.739 -0.625,-0.227 -1.193,-0.511 -1.761,-0.738 -0.568,-0.284 -1.136,-0.511 -1.704,-0.796 -0.568,-0.227 -1.136,-0.511 -1.705,-0.795 -0.567,-0.227 -1.136,-0.511 -1.704,-0.795 -0.568,-0.284 -1.079,-0.512 -1.647,-0.795 -0.568,-0.285 -1.136,-0.569 -1.647,-0.852 -0.568,-0.285 -1.08,-0.569 -1.648,-0.853 -0.568,-0.284 -1.079,-0.568 -1.647,-0.852 -0.512,-0.284 -1.08,-0.568 -1.591,-0.852 -0.568,-0.341 -1.079,-0.625 -1.59,-0.909 -0.568,-0.284 -1.08,-0.625 -1.591,-0.908 -1.079,-0.625 -2.102,-1.25 -3.124,-1.875 -1.023,-0.625 -2.045,-1.25 -3.068,-1.875 -1.022,-0.625 -2.045,-1.307 -3.01,-1.931 -0.966,-0.682 -1.989,-1.363 -2.955,-1.988 -0.965,-0.682 -1.931,-1.364 -2.896,-2.045 -0.966,-0.682 -1.875,-1.364 -2.841,-2.046 -0.909,-0.738 -1.875,-1.42 -2.783,-2.101 -0.909,-0.739 -1.818,-1.477 -2.727,-2.159 -0.852,-0.738 -1.761,-1.477 -2.613,-2.215 -0.909,-0.739 -1.761,-1.421 -2.613,-2.159 -0.852,-0.739 -1.705,-1.534 -2.557,-2.272 -0.852,-0.739 -1.647,-1.477 -2.499,-2.216 -0.795,-0.795 -1.591,-1.534 -2.386,-2.272 -0.795,-0.795 -1.59,-1.534 -2.386,-2.329 -0.795,-0.739 -1.533,-1.534 -2.329,-2.272 -0.738,-0.796 -1.477,-1.591 -2.272,-2.329 -0.682,-0.796 -1.42,-1.591 -2.159,-2.386 -0.738,-0.738 -1.42,-1.534 -2.158,-2.329 -0.682,-0.796 -1.364,-1.591 -2.045,-2.329 -0.682,-0.796 -1.364,-1.591 -2.045,-2.386 -0.625,-0.796 -1.307,-1.534 -1.932,-2.329 -0.625,-0.796 -1.249,-1.591 -1.931,-2.386 -0.568,-0.795 -1.193,-1.534 -1.818,-2.329 -0.568,-0.796 -1.193,-1.591 -1.761,-2.329 -0.568,-0.796 -1.136,-1.591 -1.704,-2.329 -0.568,-0.796 -1.136,-1.591 -1.704,-2.329 -0.512,-0.796 -1.08,-1.534 -1.591,-2.33 -0.511,-0.738 -1.022,-1.533 -1.534,-2.271 -0.511,-0.796 -1.022,-1.534 -1.477,-2.273 -0.511,-0.738 -0.965,-1.534 -1.42,-2.272 -0.454,-0.739 -0.909,-1.477 -1.363,-2.216 -0.455,-0.738 -0.909,-1.476 -1.307,-2.215 -0.454,-0.682 -0.852,-1.42 -1.249,-2.159 -0.398,-0.681 -0.796,-1.42 -1.193,-2.101 -0.398,-0.739 -0.739,-1.421 -1.136,-2.102 -0.341,-0.682 -0.739,-1.364 -1.08,-2.102 -0.341,-0.682 -0.681,-1.307 -1.022,-1.988 -0.284,-0.682 -0.625,-1.307 -0.909,-1.988 -0.341,-0.625 -0.625,-1.307 -0.909,-1.932 -0.284,-0.625 -0.568,-1.25 -0.852,-1.875 -0.114,-0.34 -0.227,-0.625 -0.398,-0.908 -0.113,-0.341 -0.227,-0.625 -0.341,-0.966 -0.113,-0.284 -0.227,-0.568 -0.397,-0.852 -0.114,-0.341 -0.227,-0.625 -0.341,-0.909 -0.114,-0.284 -0.227,-0.568 -0.341,-0.852 -0.057,-0.284 -0.17,-0.568 -0.284,-0.852 -0.114,-0.284 -0.227,-0.568 -0.284,-0.853 -0.114,-0.284 -0.227,-0.567 -0.341,-0.795 -0.057,-0.284 -0.17,-0.568 -0.227,-0.852 -0.114,-0.227 -0.17,-0.511 -0.284,-0.795 -0.057,-0.227 -0.171,-0.511 -0.227,-0.739 -0.114,-0.283 -0.171,-0.568 -0.228,-0.795 -0.056,-0.227 -0.17,-0.511 -0.227,-0.738 -0.057,-0.227 -0.113,-0.512 -0.17,-0.739 -0.057,-0.227 -0.171,-0.454 -0.228,-0.681 -0.056,-0.284 -0.113,-0.512 -0.17,-0.739 -0.057,-0.227 -0.057,-0.455 -0.114,-0.682 -0.056,-0.227 -0.113,-0.397 -0.17,-0.625 0,-0.227 -0.057,-0.454 -0.113,-0.681 0,-0.171 -0.057,-0.398 -0.114,-0.568 0,-0.227 -0.057,-0.455 -0.057,-0.625 -0.057,-0.227 -0.057,-0.398 -0.114,-0.568 0,-0.228 -0.056,-0.398 -0.056,-0.568 0,-0.171 0,-0.398 -0.057,-0.568 l 0,-0.512 c 0,-0.17 -0.057,-0.34 -0.057,-0.511 l 0,-0.511 0,-0.455 0,-0.681 0,-0.455 0,-0.511 0,-0.568 0,-0.625 0,-0.738 0,-0.739 0,-0.795 0,-0.852 0,-0.966 0,-0.966 0,-1.022 0,-1.136 0,-1.137 0,-1.192 0,-1.25 0,-1.307 0,-1.363 0,-1.42 0,-1.42 0,-1.534 0,-1.534 0,-1.59 0,-1.648 0,-1.704 0,-1.704 0,-1.761 0,-1.818 0,-1.875 0,-1.931 0,-1.931 0,-1.989 0,-1.988 0,-2.045 0,-2.101 0,-2.159 0,-2.159 0,-2.159 0,-2.272 0,-2.215 0,-2.329 0,-2.329 0,-2.386 0,-2.386 0,-2.386 0,-2.443 0,-2.499 0,-2.5 0,-2.499 0,-2.556 0,-2.556 0,-2.614 0,-2.613 0,-2.669 0,-2.67 0,-2.67 0,-5.397 0,-5.51 0,-5.567 0,-5.624 0,-5.624 0,-5.737 0,-5.738 0,-5.794 0,-11.645 0,-11.646 0,-11.701 0,-11.646 0,-5.794 0,-5.737 0,-5.681 0,-5.681 0,-5.623 0,-5.567 0,-5.51 0,-5.397 0,-2.67 0,-2.67 0,-2.67 0,-2.613 0,-2.556 0,-2.613 0,-2.557 0,-2.499 0,-2.5 0,-2.499 0,-2.443 0,-2.386 0,-2.386 0,-2.385 0,-2.329 0,-2.272 0,-2.273 0,-2.215 0,-2.215 0,-2.159 0,-2.159 0,-2.102 0,-2.045 0,-1.988 0,-1.988 0,-1.932 0,-1.931 0,-1.818 0,-1.817 0,-1.818 0,-1.705 0,-1.704 0,-1.647 0,-1.591 0,-1.533 0,-1.478 0,-1.477 0,-1.419 0,-1.364 0,-1.306 0,-1.25 0,-1.193 0,-1.137 0,-1.079 0,-1.079 0,-0.966 0,-0.909 0,-0.908 0,-0.796 0,-0.738 0,-0.682 0,-0.681 0,-0.569 0,-0.511 0,-0.795 0,-0.625 c -0.057,-0.114 -0.114,-0.227 -0.227,-0.341 l -0.512,0 -0.454,0 -0.625,0 -0.738,0 -0.455,0 -0.397,0 -0.511,0 -0.455,0 -0.568,0 -0.511,0 -0.625,0 -0.568,0 -0.625,0 -0.682,0 -0.682,0 -0.681,0 -0.739,0 -0.738,0 -0.795,0 -0.796,0 -0.852,0 -0.795,0 -0.909,0 -0.852,0 -0.909,0 -0.966,0 -0.908,0 -0.966,0 -2.045,0 -2.045,0 -2.159,0 -2.215,0 -2.273,0 -2.329,0 -2.385,0 -2.443,0 -2.5,0 -2.556,0 -2.613,0 -2.613,0 -2.67,0 -2.727,0 -2.726,0 -2.784,0 -2.84,0 -2.784,0 -2.84,0 -5.794,0 -5.738,0 -11.588,0 -5.794,0 -5.681,0 -2.84,0 -2.784,0 -2.783,0 -2.727,0 -2.727,0 -2.67,0 -2.613,0 -2.556,0 -2.556,0 -2.5,0 -2.385,0 -2.386,0 -2.33,0 -2.215,0 -2.215,0 -2.102,0 -2.045,0 -1.988,0 -0.966,0 -0.909,0 -0.909,0 -0.909,0 -0.909,0 -0.852,0 -0.795,0 -0.795,0 -0.796,0 -0.795,0 -0.739,0 -0.681,0 -0.682,0 -0.681,0 -0.625,0 -0.625,0 -0.568,0 -0.568,0 -0.568,0 -0.512,0 -0.454,0 -0.454,0 -0.796,0 -0.738,0 -0.568,0 -0.625,0 c -0.114,0.057 -0.284,0.171 -0.398,0.227 l 0,0.512 0,0.511 0,0.625 0,0.738 0,0.398 0,0.454 0,0.455 0,0.511 0,0.511 0,0.569 0,0.567 0,0.625 0,0.625 0,0.682 0,0.682 0,0.681 0,0.739 0,0.795 0,0.795 0,0.852 0,0.853 0,0.852 0,0.908 0,0.966 0,0.909 0,1.023 0,0.965 0,1.08 0,1.022 0,1.079 0,1.136 0,1.08 0,1.193 0,1.193 0,1.193 0,1.193 0,1.249 0,1.307 0,1.25 0,1.363 0,1.307 0,1.363 0,1.363 0,1.42 0,1.421 0,1.477 0,1.476 0,1.477 0,1.534 0,1.534 0,1.534 0,1.59 0,1.591 0,1.59 0,1.648 0,1.647 0,1.704 0,3.408 0,3.466 0,3.578 0,3.636 0,3.693 0,3.749 0,3.863 0,3.919 0,3.977 0,4.033 0,4.09 0,4.147 0,4.26 0,4.261 0,4.374 0,4.374 0,4.431 0,4.544 0,4.545 0,4.601 0,4.658 0,4.658 0,4.772 0,4.772 0,4.828 0,4.829 0,4.942 0,4.942 0,4.999 0,4.999 0,5.056 0,5.055 0,5.113 0,5.169 0,5.17 0,5.169 0,5.226 0,5.226 0,5.227 0,10.623 0,10.622 0,10.68 0,10.793 0,10.736 0,10.794 0,21.586 0,10.793 0,10.736 0,10.737 0,10.679 0,10.566 0,5.283 0,5.283 0,5.226 0,5.226 0,5.17 0,5.113 0,5.168 0,5.113 0,5.056 0,4.999 0,4.999 0,4.999 0,4.942 0,4.885 0,4.829 0,4.828 0,4.772 0,4.715 0,4.715 0,4.601 0,4.602 0,4.544 0,4.488 0,4.431 0,4.374 0,4.317 0,4.26 0,4.204 0,4.147 0,4.09 0,3.976 0,3.977 0,3.919 0,3.806 0,3.75 0,3.692 0,3.579 0,3.522 0,3.465 0,3.408 0,1.648 0,1.647 0,1.647 0,1.591 0,1.59 0,1.535 0,1.533 0,1.534 0,1.477 0,1.477 0,1.477 0,1.42 0,1.42 0,1.42 0,1.364 0,1.306 0,1.364 0,1.306 0,1.25 0,1.25 0,1.249 0,1.193 0,1.193 0,1.136 0,1.193 0,1.08 0,1.079 0,1.079 0,1.023 0,1.022 0,1.023 0,0.966 0,0.908 0,0.909 0,0.909 0,0.852 0,0.852 0,0.796 0,0.795 0,0.738 0,0.739 0,0.681 0,0.682 0,0.682 0,0.568 0,0.625 0,0.568 0,0.511 0,0.511 0,0.511 0,0.398 0,0.852 0,0.682 0,0.568 L 0,0 Z" /></g></g></g></g></g></g></g></svg>